<svg width="13" height="16" viewBox="0 0 13 16" fill="none" xmlns="http://www.w3.org/2000/svg">
<path d="M12.8779 6.41358C12.8779 11.0905 6.86476 15.0993 6.86476 15.0993C6.86476 15.0993 0.851562 11.0905 0.851562 6.41358C0.851563 4.81879 1.48509 3.28931 2.61279 2.16161C3.74048 1.03392 5.26996 0.400391 6.86476 0.400391C8.45955 0.400391 9.98903 1.03392 11.1167 2.16161C12.2444 3.28931 12.8779 4.81879 12.8779 6.41358Z" fill="#337C2A"/>
<path d="M6.86475 8.41895C7.97175 8.41895 8.86915 7.52155 8.86915 6.41455C8.86915 5.30756 7.97175 4.41016 6.86475 4.41016C5.75775 4.41016 4.86035 5.30756 4.86035 6.41455C4.86035 7.52155 5.75775 8.41895 6.86475 8.41895Z" fill="white"/>
</svg>
