<svg width="16" height="16" viewBox="0 0 16 16" fill="none" xmlns="http://www.w3.org/2000/svg">
<path d="M15.894 12.0237V14.3608C15.8949 14.5778 15.8504 14.7925 15.7635 14.9913C15.6766 15.1901 15.5491 15.3686 15.3892 15.5152C15.2293 15.6619 15.0406 15.7736 14.8351 15.8431C14.6295 15.9126 14.4118 15.9384 14.1957 15.9189C11.7984 15.6584 9.49574 14.8393 7.47258 13.5272C5.59029 12.3312 3.99444 10.7353 2.79836 8.85302C1.48177 6.82067 0.662427 4.50677 0.406714 2.09877C0.387246 1.88334 0.412849 1.66621 0.481891 1.46122C0.550934 1.25623 0.661904 1.06786 0.807736 0.908103C0.953568 0.748348 1.13107 0.620707 1.32893 0.533309C1.5268 0.445911 1.74069 0.40067 1.957 0.400466H4.29411C4.67218 0.396745 5.03871 0.530627 5.32537 0.777156C5.61203 1.02369 5.79927 1.36604 5.85218 1.74041C5.95083 2.48834 6.13377 3.2227 6.39751 3.9295C6.50232 4.20834 6.52501 4.51138 6.46288 4.80271C6.40074 5.09404 6.2564 5.36146 6.04694 5.57327L5.05757 6.56265C6.16657 8.513 7.78143 10.1279 9.73179 11.2369L10.7212 10.2475C10.933 10.038 11.2004 9.89369 11.4917 9.83156C11.7831 9.76943 12.0861 9.79211 12.3649 9.89693C13.0717 10.1607 13.8061 10.3436 14.554 10.4423C14.9325 10.4956 15.2781 10.6863 15.5251 10.9778C15.7722 11.2694 15.9035 11.6416 15.894 12.0237Z" fill="#337C2A"/>
</svg>
