<svg width="100" height="102" viewBox="0 0 100 102" fill="none" xmlns="http://www.w3.org/2000/svg">
<g clip-path="url(#clip0_675_2078)">
<path d="M11.0938 10.2247H0.078125V0.585938L11.0938 10.2247Z" fill="#0F9B74"/>
<path d="M99.9078 100.416L0.078125 0.585938H50.3372L99.9078 50.1565V100.416Z" fill="#0CDFA3"/>
<path d="M93.7109 101.103L99.9072 100.415L93.7109 94.2188V101.103Z" fill="#0F9B74"/>
<path d="M47.3554 22.7988C47.6545 23.0989 47.9516 23.3241 48.2468 23.4745C48.5461 23.6207 48.8375 23.6982 49.1208 23.7068C49.4123 23.7154 49.6937 23.6572 49.9652 23.5322C50.2407 23.4031 50.5021 23.2154 50.7495 22.9689C50.9847 22.7345 51.1613 22.4859 51.2791 22.223C51.397 21.96 51.4501 21.6889 51.4385 21.4096C51.4268 21.1302 51.3444 20.8447 51.191 20.5529C51.0418 20.2571 50.8156 19.9572 50.5126 19.653L49.2943 18.4303L46.1371 21.5761L47.3554 22.7988ZM51.7779 18.3923C52.3638 18.9803 52.802 19.558 53.0924 20.1252C53.3829 20.6925 53.5438 21.2393 53.5753 21.7656C53.6067 22.2919 53.5167 22.7937 53.3054 23.271C53.0981 23.7524 52.7896 24.1971 52.38 24.6052C51.9542 25.0295 51.4921 25.3485 50.9938 25.5622C50.4996 25.7718 49.9833 25.8619 49.4449 25.8326C48.9065 25.8033 48.3522 25.6445 47.782 25.356C47.2157 25.0716 46.6477 24.6435 46.078 24.0717L44.8596 22.849L41.7633 25.9342L40.1328 24.2978L48.9291 15.5332L51.7779 18.3923ZM56.2084 27.7539C56.669 28.2163 57.0122 28.7108 57.238 29.2374C57.4678 29.7681 57.5781 30.3047 57.5691 30.8472C57.564 31.3936 57.4356 31.9379 57.1836 32.4799C56.9316 33.0219 56.5603 33.5374 56.0696 34.0263C55.5748 34.5193 55.056 34.8908 54.5131 35.1408C53.9702 35.3908 53.4235 35.5194 52.8729 35.5265C52.3264 35.5376 51.7882 35.4274 51.2583 35.1957C50.7324 34.968 50.2392 34.6231 49.7785 34.1607C49.3138 33.6944 48.9666 33.1958 48.7368 32.6651C48.507 32.1344 48.3966 31.5937 48.4057 31.0432C48.4188 30.4967 48.5494 29.9505 48.7973 29.4044C49.0492 28.8624 49.4226 28.3449 49.9174 27.8519C50.4081 27.363 50.9249 26.9935 51.4678 26.7435C52.0147 26.4975 52.5594 26.371 53.1019 26.3639C53.6484 26.3608 54.1866 26.4751 54.7165 26.7068C55.2464 26.9385 55.7437 27.2876 56.2084 27.7539ZM50.9343 33.0091C51.4515 33.5282 52.0078 33.7377 52.603 33.6375C53.2023 33.5415 53.8386 33.158 54.5118 32.4872C55.185 31.8165 55.5727 31.1796 55.675 30.5766C55.7814 29.9776 55.5759 29.4186 55.0587 28.8995C54.5334 28.3723 53.965 28.1588 53.3535 28.2589C52.7502 28.359 52.1139 28.7424 51.4448 29.4092C50.7756 30.0759 50.3899 30.7108 50.2876 31.3138C50.1934 31.9168 50.409 32.4819 50.9343 33.0091ZM57.1942 38.1844C57.1571 38.5608 57.195 38.8908 57.3078 39.1744C57.4247 39.462 57.6003 39.7234 57.8347 39.9586C58.061 40.1857 58.3076 40.3481 58.5746 40.4458C58.8416 40.5434 59.1249 40.5682 59.4246 40.5201C59.7283 40.4762 60.0463 40.3573 60.3786 40.1636C60.7149 39.9658 61.0636 39.6872 61.4245 39.3275C61.7895 38.9638 62.0674 38.6263 62.2582 38.3149C62.4571 38.0036 62.5811 37.7144 62.6302 37.4473C62.6792 37.1802 62.6615 36.9312 62.5769 36.7003C62.4963 36.4735 62.357 36.2607 62.159 36.062C61.8479 35.7497 61.5163 35.5507 61.1643 35.4651C60.8163 35.3754 60.4257 35.3525 59.9925 35.3962L57.1942 38.1844ZM60.887 34.3473C61.4295 34.3159 61.9516 34.3735 62.4533 34.5202C62.955 34.6668 63.4241 34.9591 63.8605 35.3971C64.1999 35.7377 64.4381 36.1187 64.5749 36.5399C64.7159 36.9653 64.7515 37.4147 64.6818 37.8882C64.6202 38.3617 64.4453 38.8512 64.157 39.3567C63.8767 39.8622 63.4811 40.3696 62.9701 40.8787C62.5038 41.3434 62.0092 41.7109 61.4865 41.9812C60.9638 42.2515 60.4393 42.4145 59.9129 42.4702C59.3906 42.53 58.8806 42.4765 58.383 42.3096C57.8935 42.1427 57.4447 41.8545 57.0365 41.4449C56.689 41.0961 56.4447 40.7455 56.3037 40.3931C56.1667 40.0366 56.0965 39.6661 56.0932 39.2815L53.5382 41.8272L52.0411 40.3247L60.3202 32.0753L61.2355 32.9938C61.4295 33.1885 61.4655 33.4072 61.3436 33.6498L60.887 34.3473ZM72.5684 44.3676L66.3271 50.5865L65.4119 49.6679C65.2139 49.4692 65.1799 49.2526 65.3098 49.018L65.7056 48.4176C65.1915 48.4207 64.6998 48.349 64.2304 48.2024C63.7652 48.0518 63.3244 47.7676 62.9082 47.3499C62.5688 47.0092 62.3245 46.6505 62.1754 46.2738C62.0344 45.8971 61.9804 45.5144 62.0135 45.1259C62.0466 44.7373 62.1606 44.3529 62.3556 43.9727C62.5587 43.5926 62.8347 43.2287 63.1834 42.8812L67.1496 38.9293L68.6468 40.4318L64.6806 44.3838C64.2994 44.7636 64.0902 45.1458 64.0531 45.5303C64.024 45.9148 64.1853 46.2835 64.5369 46.6363C64.7955 46.8958 65.0947 47.0826 65.4345 47.1966C65.7784 47.3065 66.1528 47.3618 66.5576 47.3625L71.0713 42.865L72.5684 44.3676ZM78.3665 44.59L69.3269 53.5971L67.8298 52.0945L76.8693 43.0874L78.3665 44.59ZM76.7682 55.7363C76.3156 55.3226 75.9134 54.996 75.5616 54.7565C75.2139 54.513 74.9086 54.3444 74.6456 54.2508C74.3826 54.1573 74.156 54.1285 73.9657 54.1646C73.7753 54.2007 73.6133 54.2854 73.4794 54.4188C73.2158 54.6814 73.104 54.9464 73.144 55.2136C73.1881 55.4849 73.3354 55.7463 73.5859 55.9977C73.893 56.306 74.2124 56.517 74.5442 56.631C74.884 56.7449 75.2746 56.7962 75.7158 56.7849L76.7682 55.7363ZM76.0445 49.5959C77.4167 49.6591 78.6059 50.1956 79.6121 51.2054C79.9758 51.5704 80.2402 51.9575 80.4055 52.3667C80.5748 52.7718 80.6509 53.1808 80.634 53.5937C80.6211 54.0025 80.5172 54.4051 80.3221 54.8015C80.1312 55.2019 79.8593 55.5779 79.5064 55.9294L75.5646 59.8572L74.8857 59.1759C74.7443 59.0339 74.6554 58.9042 74.6192 58.7868C74.5871 58.6653 74.6136 58.5175 74.699 58.3436L75.0158 57.7613C74.7162 57.7445 74.437 57.7157 74.1779 57.6747C73.923 57.6298 73.6782 57.5625 73.4436 57.473C73.2089 57.3836 72.9804 57.2637 72.7581 57.1135C72.5357 56.9715 72.3133 56.7889 72.0911 56.5658C71.8284 56.3022 71.6205 56.0246 71.4672 55.7328C71.3179 55.437 71.2334 55.1373 71.2137 54.8337C71.194 54.53 71.2452 54.2285 71.3672 53.9292C71.4891 53.6298 71.6901 53.3408 71.9699 53.0619C72.128 52.9044 72.3104 52.7751 72.5171 52.6743C72.7278 52.5694 72.9627 52.5051 73.2218 52.4813C73.485 52.4615 73.7744 52.4843 74.09 52.5496C74.4056 52.615 74.7475 52.739 75.1155 52.9219C75.4876 53.1087 75.8859 53.3584 76.3104 53.6709C76.739 53.9793 77.1957 54.3647 77.6807 54.8271L78.0457 54.4634C78.4634 54.0472 78.6827 53.6509 78.7036 53.2744C78.7286 52.894 78.5734 52.5354 78.238 52.1988C77.9955 51.9555 77.7651 51.781 77.5467 51.6754C77.3323 51.5738 77.128 51.4985 76.9338 51.4496C76.7436 51.3966 76.5696 51.3477 76.4118 51.3029C76.2581 51.2621 76.1206 51.1809 75.9994 51.0593C75.8943 50.9538 75.8318 50.8384 75.8118 50.7128C75.7958 50.5833 75.8021 50.4598 75.8306 50.3424L76.0445 49.5959ZM83.5454 57.5496C84.1124 57.3725 84.6347 57.3128 85.1123 57.3703C85.594 57.4238 86.0166 57.633 86.3803 57.998C86.6672 58.2859 86.8347 58.5797 86.8827 58.8794L85.6603 59.9034C85.5671 59.9559 85.4841 59.978 85.4113 59.9697C85.3465 59.9615 85.2818 59.925 85.2171 59.8601C85.1565 59.7993 85.0757 59.6979 84.9748 59.556C84.8779 59.4182 84.7729 59.2926 84.6597 59.179C84.494 59.0127 84.3222 58.889 84.1442 58.8077C83.9663 58.7264 83.7781 58.6795 83.5798 58.667C83.3895 58.6545 83.1891 58.6724 82.9785 58.7206C82.772 58.7728 82.5512 58.8473 82.3163 58.944L78.4717 62.7748L76.9746 61.2723L83.2159 55.0534L84.0948 55.9354C84.2483 56.0895 84.327 56.2253 84.3308 56.3427C84.3387 56.456 84.2818 56.5936 84.1601 56.7553L83.5454 57.5496Z" fill="white"/>
</g>
<defs>
<clipPath id="clip0_675_2078">
<rect width="100" height="102" fill="white"/>
</clipPath>
</defs>
</svg>
