<svg width="674" height="291" viewBox="0 0 674 291" fill="none" xmlns="http://www.w3.org/2000/svg">
<rect x="0.5" y="0.5" width="673" height="290" rx="4.5" fill="white" stroke="#ECEEF6"/>
<line x1="52" y1="248.5" x2="646.698" y2="248.5" stroke="#EBEBEB"/>
<line x1="52" y1="220.5" x2="646.698" y2="220.5" stroke="#EBEBEB"/>
<line x1="52" y1="192.5" x2="646.698" y2="192.5" stroke="#EBEBEB"/>
<line x1="52" y1="164.5" x2="646.698" y2="164.5" stroke="#EBEBEB"/>
<line x1="52" y1="136.5" x2="646.698" y2="136.5" stroke="#EBEBEB"/>
<line x1="52" y1="108.5" x2="646.698" y2="108.5" stroke="#EBEBEB"/>
<line x1="52" y1="80.5" x2="646.698" y2="80.5" stroke="#EBEBEB"/>
<path d="M51.8227 267.12C51.3667 267.12 50.9427 267.06 50.5507 266.94C50.1667 266.82 49.8147 266.64 49.4947 266.4C49.1827 266.152 48.9027 265.848 48.6547 265.488L49.5427 264.468C49.9347 265.028 50.3107 265.416 50.6707 265.632C51.0307 265.848 51.4587 265.956 51.9547 265.956C52.2587 265.956 52.5347 265.908 52.7827 265.812C53.0307 265.716 53.2267 265.584 53.3707 265.416C53.5147 265.248 53.5867 265.056 53.5867 264.84C53.5867 264.696 53.5627 264.56 53.5147 264.432C53.4667 264.304 53.3907 264.188 53.2867 264.084C53.1907 263.98 53.0627 263.884 52.9027 263.796C52.7507 263.708 52.5707 263.632 52.3627 263.568C52.1547 263.496 51.9147 263.436 51.6427 263.388C51.2107 263.3 50.8347 263.184 50.5147 263.04C50.1947 262.896 49.9267 262.716 49.7107 262.5C49.4947 262.284 49.3347 262.04 49.2307 261.768C49.1267 261.488 49.0747 261.176 49.0747 260.832C49.0747 260.496 49.1467 260.184 49.2907 259.896C49.4427 259.608 49.6467 259.36 49.9027 259.152C50.1667 258.936 50.4747 258.772 50.8267 258.66C51.1787 258.54 51.5587 258.48 51.9667 258.48C52.3987 258.48 52.7947 258.536 53.1547 258.648C53.5147 258.76 53.8347 258.928 54.1147 259.152C54.3947 259.368 54.6267 259.636 54.8107 259.956L53.8987 260.856C53.7387 260.592 53.5587 260.372 53.3587 260.196C53.1587 260.012 52.9387 259.876 52.6987 259.788C52.4587 259.692 52.2027 259.644 51.9307 259.644C51.6187 259.644 51.3467 259.692 51.1147 259.788C50.8827 259.884 50.6987 260.02 50.5627 260.196C50.4347 260.364 50.3707 260.564 50.3707 260.796C50.3707 260.964 50.4027 261.12 50.4667 261.264C50.5307 261.4 50.6267 261.524 50.7547 261.636C50.8907 261.74 51.0707 261.836 51.2947 261.924C51.5187 262.004 51.7867 262.076 52.0987 262.14C52.5387 262.236 52.9307 262.36 53.2747 262.512C53.6187 262.656 53.9107 262.828 54.1507 263.028C54.3907 263.228 54.5707 263.452 54.6907 263.7C54.8187 263.948 54.8827 264.216 54.8827 264.504C54.8827 265.04 54.7587 265.504 54.5107 265.896C54.2627 266.288 53.9107 266.592 53.4547 266.808C52.9987 267.016 52.4547 267.12 51.8227 267.12ZM58.615 267.12C58.167 267.12 57.775 267.016 57.439 266.808C57.111 266.6 56.855 266.308 56.671 265.932C56.495 265.556 56.407 265.108 56.407 264.588V260.7H57.643V264.252C57.643 264.62 57.699 264.94 57.811 265.212C57.931 265.476 58.099 265.68 58.315 265.824C58.539 265.968 58.807 266.04 59.119 266.04C59.351 266.04 59.563 266.004 59.755 265.932C59.947 265.852 60.111 265.744 60.247 265.608C60.391 265.472 60.503 265.308 60.583 265.116C60.663 264.924 60.703 264.716 60.703 264.492V260.7H61.939V267H60.703V265.68L60.919 265.536C60.823 265.832 60.659 266.1 60.427 266.34C60.203 266.58 59.935 266.772 59.623 266.916C59.311 267.052 58.975 267.12 58.615 267.12ZM63.6726 267V260.7H64.9086V261.996L64.6926 262.14C64.7726 261.86 64.9286 261.604 65.1606 261.372C65.3926 261.132 65.6686 260.94 65.9886 260.796C66.3086 260.644 66.6366 260.568 66.9726 260.568C67.4526 260.568 67.8526 260.664 68.1726 260.856C68.4926 261.04 68.7326 261.324 68.8926 261.708C69.0526 262.092 69.1326 262.576 69.1326 263.16V267H67.8966V263.244C67.8966 262.884 67.8486 262.588 67.7526 262.356C67.6566 262.116 67.5086 261.944 67.3086 261.84C67.1086 261.728 66.8606 261.68 66.5646 261.696C66.3246 261.696 66.1046 261.736 65.9046 261.816C65.7046 261.888 65.5286 261.992 65.3766 262.128C65.2326 262.264 65.1166 262.424 65.0286 262.608C64.9486 262.784 64.9086 262.976 64.9086 263.184V267H64.2966C64.1926 267 64.0886 267 63.9846 267C63.8806 267 63.7766 267 63.6726 267Z" fill="#C7C7C7"/>
<path d="M145.231 267V258.6H146.503L149.563 263.58L148.951 263.568L152.047 258.6H153.247V267H151.951V263.556C151.951 262.836 151.967 262.188 151.999 261.612C152.039 261.036 152.103 260.464 152.191 259.896L152.359 260.34L149.611 264.588H148.819L146.155 260.388L146.287 259.896C146.375 260.432 146.435 260.984 146.467 261.552C146.507 262.112 146.527 262.78 146.527 263.556V267H145.231ZM158.122 267.12C157.506 267.12 156.954 266.98 156.466 266.7C155.986 266.412 155.606 266.024 155.326 265.536C155.046 265.04 154.906 264.476 154.906 263.844C154.906 263.212 155.046 262.652 155.326 262.164C155.606 261.668 155.986 261.28 156.466 261C156.954 260.712 157.506 260.568 158.122 260.568C158.73 260.568 159.274 260.712 159.754 261C160.242 261.28 160.626 261.668 160.906 262.164C161.186 262.652 161.326 263.212 161.326 263.844C161.326 264.476 161.186 265.04 160.906 265.536C160.626 266.024 160.242 266.412 159.754 266.7C159.274 266.98 158.73 267.12 158.122 267.12ZM158.122 265.992C158.498 265.992 158.834 265.9 159.13 265.716C159.426 265.524 159.658 265.268 159.826 264.948C159.994 264.62 160.074 264.252 160.066 263.844C160.074 263.428 159.994 263.06 159.826 262.74C159.658 262.412 159.426 262.156 159.13 261.972C158.834 261.788 158.498 261.696 158.122 261.696C157.746 261.696 157.406 261.792 157.102 261.984C156.806 262.168 156.574 262.424 156.406 262.752C156.238 263.072 156.158 263.436 156.166 263.844C156.158 264.252 156.238 264.62 156.406 264.948C156.574 265.268 156.806 265.524 157.102 265.716C157.406 265.9 157.746 265.992 158.122 265.992ZM162.673 267V260.7H163.909V261.996L163.693 262.14C163.773 261.86 163.929 261.604 164.161 261.372C164.393 261.132 164.669 260.94 164.989 260.796C165.309 260.644 165.637 260.568 165.973 260.568C166.453 260.568 166.853 260.664 167.173 260.856C167.493 261.04 167.733 261.324 167.893 261.708C168.053 262.092 168.133 262.576 168.133 263.16V267H166.897V263.244C166.897 262.884 166.849 262.588 166.753 262.356C166.657 262.116 166.509 261.944 166.309 261.84C166.109 261.728 165.861 261.68 165.565 261.696C165.325 261.696 165.105 261.736 164.905 261.816C164.705 261.888 164.529 261.992 164.377 262.128C164.233 262.264 164.117 262.424 164.029 262.608C163.949 262.784 163.909 262.976 163.909 263.184V267H163.297C163.193 267 163.089 267 162.985 267C162.881 267 162.777 267 162.673 267Z" fill="#C7C7C7"/>
<path d="M246.264 267V259.848H243.912V258.6H249.984V259.848H247.56V267H246.264ZM252.283 267.12C251.835 267.12 251.443 267.016 251.107 266.808C250.779 266.6 250.523 266.308 250.339 265.932C250.163 265.556 250.075 265.108 250.075 264.588V260.7H251.311V264.252C251.311 264.62 251.367 264.94 251.479 265.212C251.599 265.476 251.767 265.68 251.983 265.824C252.207 265.968 252.475 266.04 252.787 266.04C253.019 266.04 253.231 266.004 253.423 265.932C253.615 265.852 253.779 265.744 253.915 265.608C254.059 265.472 254.171 265.308 254.251 265.116C254.331 264.924 254.371 264.716 254.371 264.492V260.7H255.607V267H254.371V265.68L254.587 265.536C254.491 265.832 254.327 266.1 254.095 266.34C253.871 266.58 253.603 266.772 253.291 266.916C252.979 267.052 252.643 267.12 252.283 267.12ZM260.281 267.12C259.633 267.12 259.057 266.984 258.553 266.712C258.057 266.432 257.665 266.052 257.377 265.572C257.097 265.092 256.957 264.54 256.957 263.916C256.957 263.42 257.037 262.968 257.197 262.56C257.357 262.152 257.577 261.8 257.857 261.504C258.145 261.2 258.485 260.968 258.877 260.808C259.277 260.64 259.709 260.556 260.173 260.556C260.581 260.556 260.961 260.636 261.313 260.796C261.665 260.948 261.969 261.16 262.225 261.432C262.489 261.704 262.689 262.028 262.825 262.404C262.969 262.772 263.037 263.176 263.029 263.616L263.017 264.144H257.869L257.593 263.16H261.949L261.769 263.364V263.076C261.745 262.812 261.657 262.576 261.505 262.368C261.353 262.16 261.161 261.996 260.929 261.876C260.697 261.756 260.445 261.696 260.173 261.696C259.741 261.696 259.377 261.78 259.081 261.948C258.785 262.108 258.561 262.348 258.409 262.668C258.257 262.98 258.181 263.368 258.181 263.832C258.181 264.272 258.273 264.656 258.457 264.984C258.641 265.304 258.901 265.552 259.237 265.728C259.573 265.904 259.961 265.992 260.401 265.992C260.713 265.992 261.001 265.94 261.265 265.836C261.537 265.732 261.829 265.544 262.141 265.272L262.765 266.148C262.573 266.34 262.337 266.508 262.057 266.652C261.785 266.796 261.493 266.912 261.181 267C260.877 267.08 260.577 267.12 260.281 267.12Z" fill="#C7C7C7"/>
<path d="M341.321 267L338.645 258.6H340.025L341.645 263.856C341.693 263.984 341.737 264.136 341.777 264.312C341.817 264.48 341.853 264.652 341.885 264.828C341.917 265.004 341.945 265.168 341.969 265.32C342.001 265.472 342.029 265.596 342.053 265.692L341.705 265.68C341.825 265.256 341.917 264.928 341.981 264.696C342.053 264.464 342.109 264.288 342.149 264.168C342.189 264.04 342.225 263.932 342.257 263.844L343.769 260.052H344.933L346.397 263.844C346.477 264.036 346.545 264.228 346.601 264.42C346.665 264.604 346.721 264.792 346.769 264.984C346.817 265.168 346.869 265.364 346.925 265.572L346.613 265.656C346.653 265.44 346.681 265.272 346.697 265.152C346.721 265.024 346.741 264.92 346.757 264.84C346.773 264.76 346.789 264.684 346.805 264.612C346.821 264.532 346.845 264.432 346.877 264.312C346.917 264.192 346.969 264.028 347.033 263.82L348.629 258.6H350.021L347.345 267H346.445L344.225 261.744L344.333 261.792L342.197 267H341.321ZM353.81 267.12C353.162 267.12 352.586 266.984 352.082 266.712C351.586 266.432 351.194 266.052 350.906 265.572C350.626 265.092 350.486 264.54 350.486 263.916C350.486 263.42 350.566 262.968 350.726 262.56C350.886 262.152 351.106 261.8 351.386 261.504C351.674 261.2 352.014 260.968 352.406 260.808C352.806 260.64 353.238 260.556 353.702 260.556C354.11 260.556 354.49 260.636 354.842 260.796C355.194 260.948 355.498 261.16 355.754 261.432C356.018 261.704 356.218 262.028 356.354 262.404C356.498 262.772 356.566 263.176 356.558 263.616L356.546 264.144H351.398L351.122 263.16H355.478L355.298 263.364V263.076C355.274 262.812 355.186 262.576 355.034 262.368C354.882 262.16 354.69 261.996 354.458 261.876C354.226 261.756 353.974 261.696 353.702 261.696C353.27 261.696 352.906 261.78 352.61 261.948C352.314 262.108 352.09 262.348 351.938 262.668C351.786 262.98 351.71 263.368 351.71 263.832C351.71 264.272 351.802 264.656 351.986 264.984C352.17 265.304 352.43 265.552 352.766 265.728C353.102 265.904 353.49 265.992 353.93 265.992C354.242 265.992 354.53 265.94 354.794 265.836C355.066 265.732 355.358 265.544 355.67 265.272L356.294 266.148C356.102 266.34 355.866 266.508 355.586 266.652C355.314 266.796 355.022 266.912 354.71 267C354.406 267.08 354.106 267.12 353.81 267.12ZM360.529 267.12C359.953 267.12 359.437 266.98 358.981 266.7C358.533 266.412 358.177 266.024 357.913 265.536C357.649 265.04 357.517 264.476 357.517 263.844C357.517 263.212 357.645 262.652 357.901 262.164C358.165 261.668 358.521 261.28 358.969 261C359.417 260.712 359.925 260.568 360.493 260.568C360.805 260.568 361.105 260.62 361.393 260.724C361.689 260.82 361.953 260.956 362.185 261.132C362.417 261.3 362.597 261.488 362.725 261.696C362.861 261.896 362.929 262.1 362.929 262.308L362.569 262.332V258.12H363.805V267H362.569V265.5H362.809C362.809 265.692 362.745 265.884 362.617 266.076C362.489 266.26 362.317 266.432 362.101 266.592C361.893 266.752 361.649 266.88 361.369 266.976C361.097 267.072 360.817 267.12 360.529 267.12ZM360.697 266.052C361.073 266.052 361.405 265.956 361.693 265.764C361.981 265.572 362.205 265.312 362.365 264.984C362.533 264.648 362.617 264.268 362.617 263.844C362.617 263.42 362.533 263.044 362.365 262.716C362.205 262.38 361.981 262.116 361.693 261.924C361.405 261.732 361.073 261.636 360.697 261.636C360.321 261.636 359.989 261.732 359.701 261.924C359.413 262.116 359.185 262.38 359.017 262.716C358.857 263.044 358.777 263.42 358.777 263.844C358.777 264.268 358.857 264.648 359.017 264.984C359.185 265.312 359.413 265.572 359.701 265.764C359.989 265.956 360.321 266.052 360.697 266.052Z" fill="#C7C7C7"/>
<path d="M442.114 267V259.848H439.762V258.6H445.834V259.848H443.41V267H442.114ZM447.12 267V258.12H448.356V261.996L448.14 262.14C448.22 261.86 448.376 261.604 448.608 261.372C448.84 261.132 449.116 260.94 449.436 260.796C449.756 260.644 450.084 260.568 450.42 260.568C450.9 260.568 451.3 260.664 451.62 260.856C451.94 261.04 452.18 261.324 452.34 261.708C452.5 262.092 452.58 262.576 452.58 263.16V267H451.344V263.244C451.344 262.884 451.296 262.588 451.2 262.356C451.104 262.116 450.956 261.944 450.756 261.84C450.556 261.728 450.308 261.68 450.012 261.696C449.772 261.696 449.552 261.736 449.352 261.816C449.152 261.888 448.976 261.992 448.824 262.128C448.68 262.264 448.564 262.424 448.476 262.608C448.396 262.784 448.356 262.976 448.356 263.184V267H447.744C447.64 267 447.536 267 447.432 267C447.328 267 447.224 267 447.12 267ZM456.465 267.12C456.017 267.12 455.625 267.016 455.289 266.808C454.961 266.6 454.705 266.308 454.521 265.932C454.345 265.556 454.257 265.108 454.257 264.588V260.7H455.493V264.252C455.493 264.62 455.549 264.94 455.661 265.212C455.781 265.476 455.949 265.68 456.165 265.824C456.389 265.968 456.657 266.04 456.969 266.04C457.201 266.04 457.413 266.004 457.605 265.932C457.797 265.852 457.961 265.744 458.097 265.608C458.241 265.472 458.353 265.308 458.433 265.116C458.513 264.924 458.553 264.716 458.553 264.492V260.7H459.789V267H458.553V265.68L458.769 265.536C458.673 265.832 458.509 266.1 458.277 266.34C458.053 266.58 457.785 266.772 457.473 266.916C457.161 267.052 456.825 267.12 456.465 267.12Z" fill="#C7C7C7"/>
<path d="M536.53 267V258.6H537.826V267H536.53ZM537.106 263.424V262.176H541.438V263.424H537.106ZM537.106 259.848V258.6H541.978V259.848H537.106ZM543.331 267V260.7H544.579V262.68L544.459 262.2C544.547 261.896 544.695 261.62 544.903 261.372C545.119 261.124 545.363 260.928 545.635 260.784C545.915 260.64 546.203 260.568 546.499 260.568C546.635 260.568 546.763 260.58 546.883 260.604C547.011 260.628 547.111 260.656 547.183 260.688L546.859 262.032C546.763 261.992 546.655 261.96 546.535 261.936C546.423 261.904 546.311 261.888 546.199 261.888C545.983 261.888 545.775 261.932 545.575 262.02C545.383 262.1 545.211 262.216 545.059 262.368C544.915 262.512 544.799 262.684 544.711 262.884C544.623 263.076 544.579 263.288 544.579 263.52V267H543.331ZM548.375 267V260.7H549.611V267H548.375ZM548.975 259.308C548.711 259.308 548.507 259.24 548.363 259.104C548.219 258.968 548.147 258.776 548.147 258.528C548.147 258.296 548.219 258.108 548.363 257.964C548.515 257.82 548.719 257.748 548.975 257.748C549.239 257.748 549.443 257.816 549.587 257.952C549.731 258.088 549.803 258.28 549.803 258.528C549.803 258.76 549.727 258.948 549.575 259.092C549.431 259.236 549.231 259.308 548.975 259.308Z" fill="#C7C7C7"/>
<path d="M628.924 267.12C628.468 267.12 628.044 267.06 627.652 266.94C627.268 266.82 626.916 266.64 626.596 266.4C626.284 266.152 626.004 265.848 625.756 265.488L626.644 264.468C627.036 265.028 627.412 265.416 627.772 265.632C628.132 265.848 628.56 265.956 629.056 265.956C629.36 265.956 629.636 265.908 629.884 265.812C630.132 265.716 630.328 265.584 630.472 265.416C630.616 265.248 630.688 265.056 630.688 264.84C630.688 264.696 630.664 264.56 630.616 264.432C630.568 264.304 630.492 264.188 630.388 264.084C630.292 263.98 630.164 263.884 630.004 263.796C629.852 263.708 629.672 263.632 629.464 263.568C629.256 263.496 629.016 263.436 628.744 263.388C628.312 263.3 627.936 263.184 627.616 263.04C627.296 262.896 627.028 262.716 626.812 262.5C626.596 262.284 626.436 262.04 626.332 261.768C626.228 261.488 626.176 261.176 626.176 260.832C626.176 260.496 626.248 260.184 626.392 259.896C626.544 259.608 626.748 259.36 627.004 259.152C627.268 258.936 627.576 258.772 627.928 258.66C628.28 258.54 628.66 258.48 629.068 258.48C629.5 258.48 629.896 258.536 630.256 258.648C630.616 258.76 630.936 258.928 631.216 259.152C631.496 259.368 631.728 259.636 631.912 259.956L631 260.856C630.84 260.592 630.66 260.372 630.46 260.196C630.26 260.012 630.04 259.876 629.8 259.788C629.56 259.692 629.304 259.644 629.032 259.644C628.72 259.644 628.448 259.692 628.216 259.788C627.984 259.884 627.8 260.02 627.664 260.196C627.536 260.364 627.472 260.564 627.472 260.796C627.472 260.964 627.504 261.12 627.568 261.264C627.632 261.4 627.728 261.524 627.856 261.636C627.992 261.74 628.172 261.836 628.396 261.924C628.62 262.004 628.888 262.076 629.2 262.14C629.64 262.236 630.032 262.36 630.376 262.512C630.72 262.656 631.012 262.828 631.252 263.028C631.492 263.228 631.672 263.452 631.792 263.7C631.92 263.948 631.984 264.216 631.984 264.504C631.984 265.04 631.86 265.504 631.612 265.896C631.364 266.288 631.012 266.592 630.556 266.808C630.1 267.016 629.556 267.12 628.924 267.12ZM635.933 267.12C635.413 267.12 634.937 266.976 634.505 266.688C634.081 266.4 633.741 266.008 633.485 265.512C633.229 265.016 633.101 264.456 633.101 263.832C633.101 263.2 633.229 262.64 633.485 262.152C633.749 261.656 634.101 261.268 634.541 260.988C634.989 260.708 635.489 260.568 636.041 260.568C636.369 260.568 636.669 260.616 636.941 260.712C637.213 260.808 637.449 260.944 637.649 261.12C637.857 261.288 638.025 261.484 638.153 261.708C638.289 261.932 638.373 262.172 638.405 262.428L638.129 262.332V260.7H639.377V267H638.129V265.5L638.417 265.416C638.369 265.632 638.269 265.844 638.117 266.052C637.973 266.252 637.785 266.432 637.553 266.592C637.329 266.752 637.077 266.88 636.797 266.976C636.525 267.072 636.237 267.12 635.933 267.12ZM636.257 265.98C636.633 265.98 636.965 265.888 637.253 265.704C637.541 265.52 637.765 265.268 637.925 264.948C638.093 264.62 638.177 264.248 638.177 263.832C638.177 263.424 638.093 263.06 637.925 262.74C637.765 262.42 637.541 262.168 637.253 261.984C636.965 261.8 636.633 261.708 636.257 261.708C635.889 261.708 635.561 261.8 635.273 261.984C634.993 262.168 634.769 262.42 634.601 262.74C634.441 263.06 634.361 263.424 634.361 263.832C634.361 264.248 634.441 264.62 634.601 264.948C634.769 265.268 634.993 265.52 635.273 265.704C635.561 265.888 635.889 265.98 636.257 265.98ZM641.882 267V259.092H643.118V267H641.882ZM640.574 261.9V260.7H644.582V261.9H640.574Z" fill="#C7C7C7"/>
<path d="M19.2671 83C18.8511 83 18.4631 82.928 18.1031 82.784C17.7511 82.632 17.4431 82.424 17.1791 82.16C16.9231 81.896 16.7191 81.584 16.5671 81.224C16.4231 80.864 16.3511 80.468 16.3511 80.036C16.3511 79.82 16.3791 79.58 16.4351 79.316C16.4991 79.044 16.5911 78.748 16.7111 78.428C16.8391 78.108 16.9911 77.772 17.1671 77.42C17.3431 77.06 17.5471 76.688 17.7791 76.304L18.8711 74.456H20.1311L20.1791 74.576L18.8591 76.796C18.6191 77.204 18.4031 77.592 18.2111 77.96C18.0271 78.328 17.8711 78.676 17.7431 79.004C17.6151 79.324 17.5191 79.616 17.4551 79.88L17.1671 78.644C17.3191 78.396 17.4831 78.18 17.6591 77.996C17.8351 77.804 18.0231 77.644 18.2231 77.516C18.4311 77.388 18.6471 77.292 18.8711 77.228C19.0951 77.164 19.3271 77.132 19.5671 77.132C20.0311 77.132 20.4551 77.26 20.8391 77.516C21.2311 77.764 21.5431 78.096 21.7751 78.512C22.0151 78.928 22.1351 79.384 22.1351 79.88C22.1351 80.48 22.0111 81.016 21.7631 81.488C21.5231 81.952 21.1871 82.32 20.7551 82.592C20.3231 82.864 19.8271 83 19.2671 83ZM19.2671 81.8C19.5791 81.8 19.8551 81.728 20.0951 81.584C20.3431 81.432 20.5351 81.224 20.6711 80.96C20.8151 80.688 20.8871 80.38 20.8871 80.036C20.8871 79.74 20.8151 79.464 20.6711 79.208C20.5271 78.944 20.3351 78.732 20.0951 78.572C19.8551 78.412 19.5871 78.332 19.2911 78.332C18.9631 78.332 18.6711 78.408 18.4151 78.56C18.1591 78.712 17.9591 78.916 17.8151 79.172C17.6711 79.428 17.5991 79.712 17.5991 80.024C17.5991 80.36 17.6711 80.664 17.8151 80.936C17.9591 81.2 18.1551 81.412 18.4031 81.572C18.6511 81.724 18.9391 81.8 19.2671 81.8ZM26.1868 83.12C25.5468 83.12 24.9948 82.944 24.5308 82.592C24.0748 82.24 23.7228 81.744 23.4748 81.104C23.2268 80.456 23.1028 79.688 23.1028 78.8C23.1028 77.912 23.2268 77.148 23.4748 76.508C23.7228 75.86 24.0748 75.36 24.5308 75.008C24.9948 74.656 25.5468 74.48 26.1868 74.48C26.8268 74.48 27.3788 74.656 27.8428 75.008C28.3068 75.36 28.6628 75.86 28.9108 76.508C29.1588 77.148 29.2828 77.912 29.2828 78.8C29.2828 79.688 29.1588 80.456 28.9108 81.104C28.6628 81.744 28.3068 82.24 27.8428 82.592C27.3788 82.944 26.8268 83.12 26.1868 83.12ZM26.1868 81.944C26.7708 81.944 27.2228 81.672 27.5428 81.128C27.8628 80.576 28.0228 79.8 28.0228 78.8C28.0228 77.8 27.8628 77.028 27.5428 76.484C27.2228 75.932 26.7708 75.656 26.1868 75.656C25.6028 75.656 25.1508 75.932 24.8308 76.484C24.5108 77.028 24.3508 77.8 24.3508 78.8C24.3508 79.8 24.5108 80.576 24.8308 81.128C25.1508 81.672 25.6028 81.944 26.1868 81.944ZM33.4758 83.12C32.8358 83.12 32.2838 82.944 31.8198 82.592C31.3638 82.24 31.0118 81.744 30.7638 81.104C30.5158 80.456 30.3918 79.688 30.3918 78.8C30.3918 77.912 30.5158 77.148 30.7638 76.508C31.0118 75.86 31.3638 75.36 31.8198 75.008C32.2838 74.656 32.8358 74.48 33.4758 74.48C34.1158 74.48 34.6678 74.656 35.1318 75.008C35.5958 75.36 35.9518 75.86 36.1998 76.508C36.4478 77.148 36.5718 77.912 36.5718 78.8C36.5718 79.688 36.4478 80.456 36.1998 81.104C35.9518 81.744 35.5958 82.24 35.1318 82.592C34.6678 82.944 34.1158 83.12 33.4758 83.12ZM33.4758 81.944C34.0598 81.944 34.5118 81.672 34.8318 81.128C35.1518 80.576 35.3118 79.8 35.3118 78.8C35.3118 77.8 35.1518 77.028 34.8318 76.484C34.5118 75.932 34.0598 75.656 33.4758 75.656C32.8918 75.656 32.4398 75.932 32.1198 76.484C31.7998 77.028 31.6398 77.8 31.6398 78.8C31.6398 79.8 31.7998 80.576 32.1198 81.128C32.4398 81.672 32.8918 81.944 33.4758 81.944Z" fill="#C7C7C7"/>
<path d="M18.8848 111.084C18.3328 111.084 17.8328 110.96 17.3848 110.712C16.9368 110.456 16.5648 110.092 16.2688 109.62L16.9888 108.816C17.3648 109.232 17.6928 109.516 17.9728 109.668C18.2528 109.82 18.5568 109.896 18.8848 109.896C19.2128 109.896 19.5088 109.824 19.7728 109.68C20.0368 109.536 20.2448 109.34 20.3968 109.092C20.5568 108.844 20.6368 108.568 20.6368 108.264C20.6368 107.944 20.5608 107.66 20.4088 107.412C20.2648 107.156 20.0688 106.956 19.8208 106.812C19.5728 106.66 19.2928 106.584 18.9808 106.584C18.8288 106.584 18.6848 106.596 18.5488 106.62C18.4128 106.636 18.2488 106.68 18.0568 106.752C17.8648 106.824 17.6128 106.936 17.3008 107.088L16.6168 106.164L17.1088 102.6H21.6448V103.8H17.9248L18.1768 103.572L17.7808 106.236L17.4808 105.888C17.5608 105.808 17.6968 105.732 17.8888 105.66C18.0808 105.58 18.2928 105.516 18.5248 105.468C18.7648 105.412 18.9928 105.384 19.2088 105.384C19.7208 105.384 20.1768 105.504 20.5768 105.744C20.9848 105.976 21.3048 106.3 21.5368 106.716C21.7768 107.132 21.8968 107.608 21.8968 108.144C21.8968 108.696 21.7648 109.196 21.5008 109.644C21.2368 110.084 20.8768 110.436 20.4208 110.7C19.9648 110.956 19.4528 111.084 18.8848 111.084ZM26.2571 111.12C25.6171 111.12 25.0651 110.944 24.6011 110.592C24.1451 110.24 23.7931 109.744 23.5451 109.104C23.2971 108.456 23.1731 107.688 23.1731 106.8C23.1731 105.912 23.2971 105.148 23.5451 104.508C23.7931 103.86 24.1451 103.36 24.6011 103.008C25.0651 102.656 25.6171 102.48 26.2571 102.48C26.8971 102.48 27.4491 102.656 27.9131 103.008C28.3771 103.36 28.7331 103.86 28.9811 104.508C29.2291 105.148 29.3531 105.912 29.3531 106.8C29.3531 107.688 29.2291 108.456 28.9811 109.104C28.7331 109.744 28.3771 110.24 27.9131 110.592C27.4491 110.944 26.8971 111.12 26.2571 111.12ZM26.2571 109.944C26.8411 109.944 27.2931 109.672 27.6131 109.128C27.9331 108.576 28.0931 107.8 28.0931 106.8C28.0931 105.8 27.9331 105.028 27.6131 104.484C27.2931 103.932 26.8411 103.656 26.2571 103.656C25.6731 103.656 25.2211 103.932 24.9011 104.484C24.5811 105.028 24.4211 105.8 24.4211 106.8C24.4211 107.8 24.5811 108.576 24.9011 109.128C25.2211 109.672 25.6731 109.944 26.2571 109.944ZM33.5462 111.12C32.9062 111.12 32.3542 110.944 31.8902 110.592C31.4342 110.24 31.0822 109.744 30.8342 109.104C30.5862 108.456 30.4622 107.688 30.4622 106.8C30.4622 105.912 30.5862 105.148 30.8342 104.508C31.0822 103.86 31.4342 103.36 31.8902 103.008C32.3542 102.656 32.9062 102.48 33.5462 102.48C34.1862 102.48 34.7382 102.656 35.2022 103.008C35.6662 103.36 36.0222 103.86 36.2702 104.508C36.5182 105.148 36.6422 105.912 36.6422 106.8C36.6422 107.688 36.5182 108.456 36.2702 109.104C36.0222 109.744 35.6662 110.24 35.2022 110.592C34.7382 110.944 34.1862 111.12 33.5462 111.12ZM33.5462 109.944C34.1302 109.944 34.5822 109.672 34.9022 109.128C35.2222 108.576 35.3822 107.8 35.3822 106.8C35.3822 105.8 35.2222 105.028 34.9022 104.484C34.5822 103.932 34.1302 103.656 33.5462 103.656C32.9622 103.656 32.5102 103.932 32.1902 104.484C31.8702 105.028 31.7102 105.8 31.7102 106.8C31.7102 107.8 31.8702 108.576 32.1902 109.128C32.5102 109.672 32.9622 109.944 33.5462 109.944Z" fill="#C7C7C7"/>
<path d="M19.7142 139V132.232L20.0142 132.304L17.2542 135.676L17.2062 135.532H22.4262V136.72H16.4022L15.8502 135.64L19.9662 130.6H20.9622V139H19.7142ZM26.5676 139.12C25.9276 139.12 25.3756 138.944 24.9116 138.592C24.4556 138.24 24.1036 137.744 23.8556 137.104C23.6076 136.456 23.4836 135.688 23.4836 134.8C23.4836 133.912 23.6076 133.148 23.8556 132.508C24.1036 131.86 24.4556 131.36 24.9116 131.008C25.3756 130.656 25.9276 130.48 26.5676 130.48C27.2076 130.48 27.7596 130.656 28.2236 131.008C28.6876 131.36 29.0436 131.86 29.2916 132.508C29.5396 133.148 29.6636 133.912 29.6636 134.8C29.6636 135.688 29.5396 136.456 29.2916 137.104C29.0436 137.744 28.6876 138.24 28.2236 138.592C27.7596 138.944 27.2076 139.12 26.5676 139.12ZM26.5676 137.944C27.1516 137.944 27.6036 137.672 27.9236 137.128C28.2436 136.576 28.4036 135.8 28.4036 134.8C28.4036 133.8 28.2436 133.028 27.9236 132.484C27.6036 131.932 27.1516 131.656 26.5676 131.656C25.9836 131.656 25.5316 131.932 25.2116 132.484C24.8916 133.028 24.7316 133.8 24.7316 134.8C24.7316 135.8 24.8916 136.576 25.2116 137.128C25.5316 137.672 25.9836 137.944 26.5676 137.944ZM33.8567 139.12C33.2167 139.12 32.6647 138.944 32.2007 138.592C31.7447 138.24 31.3927 137.744 31.1447 137.104C30.8967 136.456 30.7727 135.688 30.7727 134.8C30.7727 133.912 30.8967 133.148 31.1447 132.508C31.3927 131.86 31.7447 131.36 32.2007 131.008C32.6647 130.656 33.2167 130.48 33.8567 130.48C34.4967 130.48 35.0487 130.656 35.5127 131.008C35.9767 131.36 36.3327 131.86 36.5807 132.508C36.8287 133.148 36.9527 133.912 36.9527 134.8C36.9527 135.688 36.8287 136.456 36.5807 137.104C36.3327 137.744 35.9767 138.24 35.5127 138.592C35.0487 138.944 34.4967 139.12 33.8567 139.12ZM33.8567 137.944C34.4407 137.944 34.8927 137.672 35.2127 137.128C35.5327 136.576 35.6927 135.8 35.6927 134.8C35.6927 133.8 35.5327 133.028 35.2127 132.484C34.8927 131.932 34.4407 131.656 33.8567 131.656C33.2727 131.656 32.8207 131.932 32.5007 132.484C32.1807 133.028 32.0207 133.8 32.0207 134.8C32.0207 135.8 32.1807 136.576 32.5007 137.128C32.8207 137.672 33.2727 137.944 33.8567 137.944Z" fill="#C7C7C7"/>
<path d="M19.0472 167.12C18.4552 167.12 17.9392 166.984 17.4992 166.712C17.0672 166.44 16.6592 165.984 16.2752 165.344L17.2832 164.708C17.4832 165.004 17.6792 165.248 17.8712 165.44C18.0712 165.624 18.2752 165.76 18.4832 165.848C18.6912 165.936 18.9112 165.98 19.1432 165.98C19.4232 165.98 19.6832 165.912 19.9232 165.776C20.1632 165.632 20.3552 165.436 20.4992 165.188C20.6432 164.94 20.7152 164.66 20.7152 164.348C20.7152 164.036 20.6592 163.772 20.5472 163.556C20.4352 163.332 20.2712 163.164 20.0552 163.052C19.8392 162.932 19.5832 162.872 19.2872 162.872C19.1512 162.872 19.0072 162.888 18.8552 162.92C18.7112 162.944 18.5552 162.984 18.3872 163.04C18.2192 163.088 18.0352 163.152 17.8352 163.232L17.4752 162.284L20.0672 159.428L20.3192 159.8H16.7432V158.6H21.5552L21.7952 159.08L19.0472 162.128L18.7472 161.816C18.8112 161.784 18.9152 161.756 19.0592 161.732C19.2112 161.7 19.3352 161.684 19.4312 161.684C19.7832 161.684 20.1112 161.752 20.4152 161.888C20.7272 162.016 20.9952 162.2 21.2192 162.44C21.4512 162.672 21.6312 162.948 21.7592 163.268C21.8952 163.58 21.9632 163.916 21.9632 164.276C21.9632 164.82 21.8312 165.308 21.5672 165.74C21.3112 166.164 20.9632 166.5 20.5232 166.748C20.0832 166.996 19.5912 167.12 19.0472 167.12ZM26.0227 167.12C25.3827 167.12 24.8307 166.944 24.3667 166.592C23.9107 166.24 23.5587 165.744 23.3107 165.104C23.0627 164.456 22.9387 163.688 22.9387 162.8C22.9387 161.912 23.0627 161.148 23.3107 160.508C23.5587 159.86 23.9107 159.36 24.3667 159.008C24.8307 158.656 25.3827 158.48 26.0227 158.48C26.6627 158.48 27.2147 158.656 27.6787 159.008C28.1427 159.36 28.4987 159.86 28.7467 160.508C28.9947 161.148 29.1187 161.912 29.1187 162.8C29.1187 163.688 28.9947 164.456 28.7467 165.104C28.4987 165.744 28.1427 166.24 27.6787 166.592C27.2147 166.944 26.6627 167.12 26.0227 167.12ZM26.0227 165.944C26.6067 165.944 27.0587 165.672 27.3787 165.128C27.6987 164.576 27.8587 163.8 27.8587 162.8C27.8587 161.8 27.6987 161.028 27.3787 160.484C27.0587 159.932 26.6067 159.656 26.0227 159.656C25.4387 159.656 24.9867 159.932 24.6667 160.484C24.3467 161.028 24.1867 161.8 24.1867 162.8C24.1867 163.8 24.3467 164.576 24.6667 165.128C24.9867 165.672 25.4387 165.944 26.0227 165.944ZM33.3118 167.12C32.6718 167.12 32.1198 166.944 31.6558 166.592C31.1998 166.24 30.8478 165.744 30.5998 165.104C30.3518 164.456 30.2278 163.688 30.2278 162.8C30.2278 161.912 30.3518 161.148 30.5998 160.508C30.8478 159.86 31.1998 159.36 31.6558 159.008C32.1198 158.656 32.6718 158.48 33.3118 158.48C33.9518 158.48 34.5038 158.656 34.9678 159.008C35.4318 159.36 35.7878 159.86 36.0358 160.508C36.2838 161.148 36.4078 161.912 36.4078 162.8C36.4078 163.688 36.2838 164.456 36.0358 165.104C35.7878 165.744 35.4318 166.24 34.9678 166.592C34.5038 166.944 33.9518 167.12 33.3118 167.12ZM33.3118 165.944C33.8958 165.944 34.3478 165.672 34.6678 165.128C34.9878 164.576 35.1478 163.8 35.1478 162.8C35.1478 161.8 34.9878 161.028 34.6678 160.484C34.3478 159.932 33.8958 159.656 33.3118 159.656C32.7278 159.656 32.2758 159.932 31.9558 160.484C31.6358 161.028 31.4758 161.8 31.4758 162.8C31.4758 163.8 31.6358 164.576 31.9558 165.128C32.2758 165.672 32.7278 165.944 33.3118 165.944Z" fill="#C7C7C7"/>
<path d="M17.0398 195L16.6438 194.016L19.2118 191.124C19.3478 190.98 19.4878 190.816 19.6318 190.632C19.7838 190.44 19.9278 190.244 20.0638 190.044C20.1998 189.844 20.3078 189.648 20.3878 189.456C20.4758 189.256 20.5198 189.068 20.5198 188.892C20.5198 188.636 20.4678 188.42 20.3638 188.244C20.2678 188.06 20.1238 187.92 19.9318 187.824C19.7478 187.728 19.5238 187.68 19.2598 187.68C19.0278 187.68 18.7998 187.748 18.5758 187.884C18.3518 188.02 18.1478 188.212 17.9638 188.46C17.7798 188.708 17.6358 188.996 17.5318 189.324L16.5358 188.7C16.6718 188.236 16.8758 187.84 17.1478 187.512C17.4278 187.176 17.7598 186.92 18.1438 186.744C18.5358 186.568 18.9598 186.48 19.4158 186.48C19.8878 186.48 20.3078 186.58 20.6758 186.78C21.0438 186.972 21.3318 187.244 21.5398 187.596C21.7478 187.94 21.8518 188.34 21.8518 188.796C21.8518 188.98 21.8318 189.168 21.7918 189.36C21.7518 189.552 21.6878 189.752 21.5998 189.96C21.5118 190.16 21.3998 190.372 21.2638 190.596C21.1278 190.812 20.9638 191.04 20.7718 191.28C20.5878 191.52 20.3758 191.772 20.1358 192.036L18.2278 194.112L17.9878 193.752H22.1158V195H17.0398ZM26.134 195.12C25.494 195.12 24.942 194.944 24.478 194.592C24.022 194.24 23.67 193.744 23.422 193.104C23.174 192.456 23.05 191.688 23.05 190.8C23.05 189.912 23.174 189.148 23.422 188.508C23.67 187.86 24.022 187.36 24.478 187.008C24.942 186.656 25.494 186.48 26.134 186.48C26.774 186.48 27.326 186.656 27.79 187.008C28.254 187.36 28.61 187.86 28.858 188.508C29.106 189.148 29.23 189.912 29.23 190.8C29.23 191.688 29.106 192.456 28.858 193.104C28.61 193.744 28.254 194.24 27.79 194.592C27.326 194.944 26.774 195.12 26.134 195.12ZM26.134 193.944C26.718 193.944 27.17 193.672 27.49 193.128C27.81 192.576 27.97 191.8 27.97 190.8C27.97 189.8 27.81 189.028 27.49 188.484C27.17 187.932 26.718 187.656 26.134 187.656C25.55 187.656 25.098 187.932 24.778 188.484C24.458 189.028 24.298 189.8 24.298 190.8C24.298 191.8 24.458 192.576 24.778 193.128C25.098 193.672 25.55 193.944 26.134 193.944ZM33.4231 195.12C32.7831 195.12 32.2311 194.944 31.7671 194.592C31.3111 194.24 30.9591 193.744 30.7111 193.104C30.4631 192.456 30.3391 191.688 30.3391 190.8C30.3391 189.912 30.4631 189.148 30.7111 188.508C30.9591 187.86 31.3111 187.36 31.7671 187.008C32.2311 186.656 32.7831 186.48 33.4231 186.48C34.0631 186.48 34.6151 186.656 35.0791 187.008C35.5431 187.36 35.8991 187.86 36.1471 188.508C36.3951 189.148 36.5191 189.912 36.5191 190.8C36.5191 191.688 36.3951 192.456 36.1471 193.104C35.8991 193.744 35.5431 194.24 35.0791 194.592C34.6151 194.944 34.0631 195.12 33.4231 195.12ZM33.4231 193.944C34.0071 193.944 34.4591 193.672 34.7791 193.128C35.0991 192.576 35.2591 191.8 35.2591 190.8C35.2591 189.8 35.0991 189.028 34.7791 188.484C34.4591 187.932 34.0071 187.656 33.4231 187.656C32.8391 187.656 32.3871 187.932 32.0671 188.484C31.7471 189.028 31.5871 189.8 31.5871 190.8C31.5871 191.8 31.7471 192.576 32.0671 193.128C32.3871 193.672 32.8391 193.944 33.4231 193.944Z" fill="#C7C7C7"/>
<path d="M18.8149 222.412V215.596L19.2589 215.932L17.6029 216.808L17.2549 215.68L19.4989 214.48H20.1229V222.412H18.8149ZM17.4829 223V221.752H21.4909V223H17.4829ZM25.8469 223.12C25.2069 223.12 24.6549 222.944 24.1909 222.592C23.7349 222.24 23.3829 221.744 23.1349 221.104C22.8869 220.456 22.7629 219.688 22.7629 218.8C22.7629 217.912 22.8869 217.148 23.1349 216.508C23.3829 215.86 23.7349 215.36 24.1909 215.008C24.6549 214.656 25.2069 214.48 25.8469 214.48C26.4869 214.48 27.0389 214.656 27.5029 215.008C27.9669 215.36 28.3229 215.86 28.5709 216.508C28.8189 217.148 28.9429 217.912 28.9429 218.8C28.9429 219.688 28.8189 220.456 28.5709 221.104C28.3229 221.744 27.9669 222.24 27.5029 222.592C27.0389 222.944 26.4869 223.12 25.8469 223.12ZM25.8469 221.944C26.4309 221.944 26.8829 221.672 27.2029 221.128C27.5229 220.576 27.6829 219.8 27.6829 218.8C27.6829 217.8 27.5229 217.028 27.2029 216.484C26.8829 215.932 26.4309 215.656 25.8469 215.656C25.2629 215.656 24.8109 215.932 24.4909 216.484C24.1709 217.028 24.0109 217.8 24.0109 218.8C24.0109 219.8 24.1709 220.576 24.4909 221.128C24.8109 221.672 25.2629 221.944 25.8469 221.944ZM33.136 223.12C32.496 223.12 31.944 222.944 31.48 222.592C31.024 222.24 30.672 221.744 30.424 221.104C30.176 220.456 30.052 219.688 30.052 218.8C30.052 217.912 30.176 217.148 30.424 216.508C30.672 215.86 31.024 215.36 31.48 215.008C31.944 214.656 32.496 214.48 33.136 214.48C33.776 214.48 34.328 214.656 34.792 215.008C35.256 215.36 35.612 215.86 35.86 216.508C36.108 217.148 36.232 217.912 36.232 218.8C36.232 219.688 36.108 220.456 35.86 221.104C35.612 221.744 35.256 222.24 34.792 222.592C34.328 222.944 33.776 223.12 33.136 223.12ZM33.136 221.944C33.72 221.944 34.172 221.672 34.492 221.128C34.812 220.576 34.972 219.8 34.972 218.8C34.972 217.8 34.812 217.028 34.492 216.484C34.172 215.932 33.72 215.656 33.136 215.656C32.552 215.656 32.1 215.932 31.78 216.484C31.46 217.028 31.3 217.8 31.3 218.8C31.3 219.8 31.46 220.576 31.78 221.128C32.1 221.672 32.552 221.944 33.136 221.944Z" fill="#C7C7C7"/>
<path d="M22.8469 251.12C22.2069 251.12 21.6549 250.944 21.1909 250.592C20.7349 250.24 20.3829 249.744 20.1349 249.104C19.8869 248.456 19.7629 247.688 19.7629 246.8C19.7629 245.912 19.8869 245.148 20.1349 244.508C20.3829 243.86 20.7349 243.36 21.1909 243.008C21.6549 242.656 22.2069 242.48 22.8469 242.48C23.4869 242.48 24.0389 242.656 24.5029 243.008C24.9669 243.36 25.3229 243.86 25.5709 244.508C25.8189 245.148 25.9429 245.912 25.9429 246.8C25.9429 247.688 25.8189 248.456 25.5709 249.104C25.3229 249.744 24.9669 250.24 24.5029 250.592C24.0389 250.944 23.4869 251.12 22.8469 251.12ZM22.8469 249.944C23.4309 249.944 23.8829 249.672 24.2029 249.128C24.5229 248.576 24.6829 247.8 24.6829 246.8C24.6829 245.8 24.5229 245.028 24.2029 244.484C23.8829 243.932 23.4309 243.656 22.8469 243.656C22.2629 243.656 21.8109 243.932 21.4909 244.484C21.1709 245.028 21.0109 245.8 21.0109 246.8C21.0109 247.8 21.1709 248.576 21.4909 249.128C21.8109 249.672 22.2629 249.944 22.8469 249.944ZM30.136 251.12C29.496 251.12 28.944 250.944 28.48 250.592C28.024 250.24 27.672 249.744 27.424 249.104C27.176 248.456 27.052 247.688 27.052 246.8C27.052 245.912 27.176 245.148 27.424 244.508C27.672 243.86 28.024 243.36 28.48 243.008C28.944 242.656 29.496 242.48 30.136 242.48C30.776 242.48 31.328 242.656 31.792 243.008C32.256 243.36 32.612 243.86 32.86 244.508C33.108 245.148 33.232 245.912 33.232 246.8C33.232 247.688 33.108 248.456 32.86 249.104C32.612 249.744 32.256 250.24 31.792 250.592C31.328 250.944 30.776 251.12 30.136 251.12ZM30.136 249.944C30.72 249.944 31.172 249.672 31.492 249.128C31.812 248.576 31.972 247.8 31.972 246.8C31.972 245.8 31.812 245.028 31.492 244.484C31.172 243.932 30.72 243.656 30.136 243.656C29.552 243.656 29.1 243.932 28.78 244.484C28.46 245.028 28.3 245.8 28.3 246.8C28.3 247.8 28.46 248.576 28.78 249.128C29.1 249.672 29.552 249.944 30.136 249.944Z" fill="#C7C7C7"/>
<rect x="581" y="20" width="78" height="23" rx="9" fill="#F7F7F7"/>
<path d="M588.362 35V29.2H586.362V28H591.722V29.2H589.662V35H588.362ZM592.877 35V27.6H594.097V30.81L593.867 30.93C593.934 30.69 594.064 30.4733 594.257 30.28C594.45 30.08 594.68 29.92 594.947 29.8C595.214 29.68 595.487 29.62 595.767 29.62C596.167 29.62 596.5 29.7 596.767 29.86C597.04 30.02 597.244 30.26 597.377 30.58C597.517 30.9 597.587 31.3 597.587 31.78V35H596.357V31.87C596.357 31.6033 596.32 31.3833 596.247 31.21C596.174 31.03 596.06 30.9 595.907 30.82C595.754 30.7333 595.567 30.6933 595.347 30.7C595.167 30.7 595 30.73 594.847 30.79C594.7 30.8433 594.57 30.9233 594.457 31.03C594.35 31.13 594.264 31.2467 594.197 31.38C594.137 31.5133 594.107 31.66 594.107 31.82V35H593.497C593.377 35 593.264 35 593.157 35C593.057 35 592.964 35 592.877 35ZM599.211 35V29.73H600.441V35H599.211ZM599.811 28.61C599.564 28.61 599.371 28.55 599.231 28.43C599.097 28.3033 599.031 28.1267 599.031 27.9C599.031 27.6867 599.101 27.5133 599.241 27.38C599.381 27.2467 599.571 27.18 599.811 27.18C600.064 27.18 600.257 27.2433 600.391 27.37C600.531 27.49 600.601 27.6667 600.601 27.9C600.601 28.1067 600.531 28.2767 600.391 28.41C600.251 28.5433 600.057 28.61 599.811 28.61ZM603.86 35.1C603.394 35.1 602.974 35.0233 602.6 34.87C602.234 34.71 601.934 34.4833 601.7 34.19L602.5 33.5C602.7 33.7267 602.924 33.89 603.17 33.99C603.417 34.09 603.677 34.14 603.95 34.14C604.064 34.14 604.164 34.1267 604.25 34.1C604.344 34.0733 604.424 34.0333 604.49 33.98C604.557 33.9267 604.607 33.8667 604.64 33.8C604.68 33.7267 604.7 33.6467 604.7 33.56C604.7 33.4 604.64 33.2733 604.52 33.18C604.454 33.1333 604.347 33.0833 604.2 33.03C604.06 32.9767 603.877 32.9233 603.65 32.87C603.29 32.7767 602.99 32.67 602.75 32.55C602.51 32.4233 602.324 32.2833 602.19 32.13C602.077 32.0033 601.99 31.86 601.93 31.7C601.877 31.54 601.85 31.3667 601.85 31.18C601.85 30.9467 601.9 30.7367 602 30.55C602.107 30.3567 602.25 30.19 602.43 30.05C602.61 29.91 602.82 29.8033 603.06 29.73C603.3 29.6567 603.55 29.62 603.81 29.62C604.077 29.62 604.334 29.6533 604.58 29.72C604.834 29.7867 605.067 29.8833 605.28 30.01C605.5 30.13 605.687 30.2767 605.84 30.45L605.16 31.2C605.034 31.08 604.894 30.9733 604.74 30.88C604.594 30.7867 604.444 30.7133 604.29 30.66C604.137 30.6 603.994 30.57 603.86 30.57C603.734 30.57 603.62 30.5833 603.52 30.61C603.42 30.63 603.337 30.6633 603.27 30.71C603.204 30.7567 603.15 30.8167 603.11 30.89C603.077 30.9567 603.06 31.0367 603.06 31.13C603.067 31.21 603.087 31.2867 603.12 31.36C603.16 31.4267 603.214 31.4833 603.28 31.53C603.354 31.5767 603.464 31.63 603.61 31.69C603.757 31.75 603.947 31.8067 604.18 31.86C604.507 31.9467 604.78 32.0433 605 32.15C605.22 32.2567 605.394 32.38 605.52 32.52C605.647 32.64 605.737 32.78 605.79 32.94C605.844 33.1 605.87 33.2767 605.87 33.47C605.87 33.7833 605.78 34.0633 605.6 34.31C605.427 34.5567 605.187 34.75 604.88 34.89C604.58 35.03 604.24 35.1 603.86 35.1ZM611.723 35L609.543 28H610.903L612.143 32.13C612.183 32.2567 612.22 32.3967 612.253 32.55C612.287 32.7033 612.317 32.8567 612.343 33.01C612.37 33.1567 612.393 33.2933 612.413 33.42C612.433 33.5467 612.453 33.6533 612.473 33.74L612.203 33.73C612.283 33.4167 612.347 33.1633 612.393 32.97C612.44 32.7767 612.48 32.6167 612.513 32.49C612.553 32.3567 612.593 32.2333 612.633 32.12L613.813 29.1H614.923L616.073 32.12C616.14 32.3067 616.2 32.4867 616.253 32.66C616.307 32.8267 616.35 32.9933 616.383 33.16C616.423 33.32 616.46 33.4867 616.493 33.66L616.253 33.71C616.28 33.55 616.3 33.42 616.313 33.32C616.327 33.22 616.34 33.13 616.353 33.05C616.367 32.97 616.38 32.8933 616.393 32.82C616.407 32.74 616.427 32.6467 616.453 32.54C616.487 32.4267 616.527 32.2833 616.573 32.11L617.803 28H619.153L616.963 35H616.023L614.243 30.74L614.363 30.78L612.673 35H611.723ZM622.361 35.1C621.807 35.1 621.317 34.9833 620.891 34.75C620.471 34.5167 620.141 34.2 619.901 33.8C619.667 33.3933 619.551 32.93 619.551 32.41C619.551 31.9967 619.617 31.62 619.751 31.28C619.884 30.94 620.067 30.6467 620.301 30.4C620.541 30.1467 620.824 29.9533 621.151 29.82C621.484 29.68 621.847 29.61 622.241 29.61C622.587 29.61 622.911 29.6767 623.211 29.81C623.511 29.9433 623.771 30.1267 623.991 30.36C624.211 30.5867 624.377 30.86 624.491 31.18C624.611 31.4933 624.667 31.8367 624.661 32.21L624.651 32.64H620.381L620.151 31.8H623.621L623.461 31.97V31.75C623.441 31.5433 623.374 31.3633 623.261 31.21C623.147 31.05 623.001 30.9267 622.821 30.84C622.647 30.7467 622.454 30.7 622.241 30.7C621.914 30.7 621.637 30.7633 621.411 30.89C621.191 31.0167 621.024 31.2 620.911 31.44C620.797 31.6733 620.741 31.9667 620.741 32.32C620.741 32.66 620.811 32.9567 620.951 33.21C621.097 33.4633 621.301 33.66 621.561 33.8C621.827 33.9333 622.137 34 622.491 34C622.737 34 622.964 33.96 623.171 33.88C623.377 33.8 623.601 33.6567 623.841 33.45L624.451 34.3C624.271 34.4667 624.064 34.61 623.831 34.73C623.604 34.8433 623.364 34.9333 623.111 35C622.857 35.0667 622.607 35.1 622.361 35.1ZM628.32 35.1C627.767 35.1 627.277 34.9833 626.85 34.75C626.43 34.5167 626.1 34.2 625.86 33.8C625.627 33.3933 625.51 32.93 625.51 32.41C625.51 31.9967 625.577 31.62 625.71 31.28C625.843 30.94 626.027 30.6467 626.26 30.4C626.5 30.1467 626.783 29.9533 627.11 29.82C627.443 29.68 627.807 29.61 628.2 29.61C628.547 29.61 628.87 29.6767 629.17 29.81C629.47 29.9433 629.73 30.1267 629.95 30.36C630.17 30.5867 630.337 30.86 630.45 31.18C630.57 31.4933 630.627 31.8367 630.62 32.21L630.61 32.64H626.34L626.11 31.8H629.58L629.42 31.97V31.75C629.4 31.5433 629.333 31.3633 629.22 31.21C629.107 31.05 628.96 30.9267 628.78 30.84C628.607 30.7467 628.413 30.7 628.2 30.7C627.873 30.7 627.597 30.7633 627.37 30.89C627.15 31.0167 626.983 31.2 626.87 31.44C626.757 31.6733 626.7 31.9667 626.7 32.32C626.7 32.66 626.77 32.9567 626.91 33.21C627.057 33.4633 627.26 33.66 627.52 33.8C627.787 33.9333 628.097 34 628.45 34C628.697 34 628.923 33.96 629.13 33.88C629.337 33.8 629.56 33.6567 629.8 33.45L630.41 34.3C630.23 34.4667 630.023 34.61 629.79 34.73C629.563 34.8433 629.323 34.9333 629.07 35C628.817 35.0667 628.567 35.1 628.32 35.1ZM632.959 33.39L632.719 32.24L635.219 29.73H636.859L632.959 33.39ZM631.809 35V27.6H633.039V35H631.809ZM635.369 35L633.429 32.65L634.299 31.91L636.889 35H635.369Z" fill="#231F20"/>
<path d="M644.001 29.5L648.001 33.5L652.001 29.5" stroke="black" stroke-width="1.5" stroke-linecap="round" stroke-linejoin="round"/>
<path d="M15.256 37L19.624 25.8H21.576L25.912 37H23.752L21.352 30.632C21.2987 30.504 21.224 30.3013 21.128 30.024C21.0427 29.7467 20.9467 29.448 20.84 29.128C20.7333 28.7973 20.6373 28.4933 20.552 28.216C20.4667 27.928 20.4027 27.72 20.36 27.592L20.76 27.576C20.696 27.7893 20.6213 28.0293 20.536 28.296C20.4507 28.5627 20.36 28.84 20.264 29.128C20.168 29.416 20.072 29.6933 19.976 29.96C19.8907 30.2267 19.8107 30.4667 19.736 30.68L17.336 37H15.256ZM17.24 34.44L17.96 32.632H23.064L23.832 34.44H17.24ZM27.4839 40.52V28.568H29.4199L29.4519 30.488L29.1159 30.344C29.1799 30.0133 29.3612 29.704 29.6599 29.416C29.9585 29.1173 30.3212 28.8773 30.7479 28.696C31.1852 28.5147 31.6385 28.424 32.1079 28.424C32.8545 28.424 33.5159 28.6107 34.0919 28.984C34.6785 29.3573 35.1372 29.8693 35.4679 30.52C35.8092 31.1707 35.9799 31.9227 35.9799 32.776C35.9799 33.6187 35.8092 34.3707 35.4679 35.032C35.1372 35.6827 34.6785 36.2 34.0919 36.584C33.5159 36.9573 32.8652 37.144 32.1399 37.144C31.6492 37.144 31.1745 37.048 30.7159 36.856C30.2679 36.664 29.8839 36.4133 29.5639 36.104C29.2545 35.7947 29.0625 35.4693 28.9879 35.128L29.4679 34.904V40.52H27.4839ZM31.7399 35.4C32.1879 35.4 32.5879 35.288 32.9399 35.064C33.2919 34.84 33.5639 34.5307 33.7559 34.136C33.9585 33.7413 34.0599 33.288 34.0599 32.776C34.0599 32.264 33.9639 31.816 33.7719 31.432C33.5799 31.0373 33.3079 30.728 32.9559 30.504C32.6039 30.28 32.1985 30.168 31.7399 30.168C31.2705 30.168 30.8599 30.28 30.5079 30.504C30.1665 30.7173 29.8945 31.0213 29.6919 31.416C29.4892 31.8107 29.3879 32.264 29.3879 32.776C29.3879 33.288 29.4892 33.7413 29.6919 34.136C29.8945 34.5307 30.1665 34.84 30.5079 35.064C30.8599 35.288 31.2705 35.4 31.7399 35.4ZM37.8939 40.52V28.568H39.8299L39.8619 30.488L39.5259 30.344C39.5899 30.0133 39.7712 29.704 40.0699 29.416C40.3685 29.1173 40.7312 28.8773 41.1579 28.696C41.5952 28.5147 42.0485 28.424 42.5179 28.424C43.2645 28.424 43.9259 28.6107 44.5019 28.984C45.0885 29.3573 45.5472 29.8693 45.8779 30.52C46.2192 31.1707 46.3899 31.9227 46.3899 32.776C46.3899 33.6187 46.2192 34.3707 45.8779 35.032C45.5472 35.6827 45.0885 36.2 44.5019 36.584C43.9259 36.9573 43.2752 37.144 42.5499 37.144C42.0592 37.144 41.5845 37.048 41.1259 36.856C40.6779 36.664 40.2939 36.4133 39.9739 36.104C39.6645 35.7947 39.4725 35.4693 39.3979 35.128L39.8779 34.904V40.52H37.8939ZM42.1499 35.4C42.5979 35.4 42.9979 35.288 43.3499 35.064C43.7019 34.84 43.9739 34.5307 44.1659 34.136C44.3685 33.7413 44.4699 33.288 44.4699 32.776C44.4699 32.264 44.3739 31.816 44.1819 31.432C43.9899 31.0373 43.7179 30.728 43.3659 30.504C43.0139 30.28 42.6085 30.168 42.1499 30.168C41.6805 30.168 41.2699 30.28 40.9179 30.504C40.5765 30.7173 40.3045 31.0213 40.1019 31.416C39.8992 31.8107 39.7979 32.264 39.7979 32.776C39.7979 33.288 39.8992 33.7413 40.1019 34.136C40.3045 34.5307 40.5765 34.84 40.9179 35.064C41.2699 35.288 41.6805 35.4 42.1499 35.4ZM52.2559 37.16C51.3705 37.16 50.5865 36.9733 49.9039 36.6C49.2319 36.2267 48.7039 35.72 48.3199 35.08C47.9465 34.4293 47.7599 33.688 47.7599 32.856C47.7599 32.1947 47.8665 31.592 48.0799 31.048C48.2932 30.504 48.5865 30.0347 48.9599 29.64C49.3439 29.2347 49.7972 28.9253 50.3199 28.712C50.8532 28.488 51.4345 28.376 52.0639 28.376C52.6185 28.376 53.1359 28.4827 53.6159 28.696C54.0959 28.9093 54.5119 29.2027 54.8639 29.576C55.2159 29.9387 55.4825 30.376 55.6639 30.888C55.8559 31.3893 55.9465 31.9387 55.9359 32.536L55.9199 33.224H49.0879L48.7199 31.88H54.2719L54.0159 32.152V31.8C53.9839 31.4693 53.8772 31.1813 53.6959 30.936C53.5145 30.68 53.2799 30.4827 52.9919 30.344C52.7145 30.1947 52.4052 30.12 52.0639 30.12C51.5412 30.12 51.0985 30.2213 50.7359 30.424C50.3839 30.6267 50.1172 30.92 49.9359 31.304C49.7545 31.6773 49.6639 32.1467 49.6639 32.712C49.6639 33.256 49.7759 33.7307 49.9999 34.136C50.2345 34.5413 50.5599 34.856 50.9759 35.08C51.4025 35.2933 51.8985 35.4 52.4639 35.4C52.8585 35.4 53.2212 35.336 53.5519 35.208C53.8825 35.08 54.2399 34.8507 54.6239 34.52L55.5999 35.88C55.3119 36.1467 54.9812 36.376 54.6079 36.568C54.2452 36.7493 53.8612 36.8933 53.4559 37C53.0505 37.1067 52.6505 37.16 52.2559 37.16ZM61.0229 37.16C60.3295 37.16 59.7002 36.968 59.1349 36.584C58.5695 36.2 58.1162 35.6773 57.7749 35.016C57.4335 34.3547 57.2629 33.6027 57.2629 32.76C57.2629 31.9173 57.4335 31.1653 57.7749 30.504C58.1162 29.8427 58.5802 29.3253 59.1669 28.952C59.7535 28.5787 60.4149 28.392 61.1509 28.392C61.5775 28.392 61.9669 28.456 62.3189 28.584C62.6709 28.7013 62.9802 28.872 63.2469 29.096C63.5135 29.32 63.7322 29.576 63.9029 29.864C64.0842 30.152 64.2069 30.4613 64.2709 30.792L63.8389 30.68V28.568H65.8229V37H63.8229V34.984L64.2869 34.904C64.2122 35.192 64.0735 35.4747 63.8709 35.752C63.6789 36.0187 63.4335 36.2587 63.1349 36.472C62.8469 36.6747 62.5215 36.84 62.1589 36.968C61.8069 37.096 61.4282 37.16 61.0229 37.16ZM61.5669 35.416C62.0255 35.416 62.4309 35.304 62.7829 35.08C63.1349 34.856 63.4069 34.5467 63.5989 34.152C63.8015 33.7467 63.9029 33.2827 63.9029 32.76C63.9029 32.248 63.8015 31.7947 63.5989 31.4C63.4069 31.0053 63.1349 30.696 62.7829 30.472C62.4309 30.248 62.0255 30.136 61.5669 30.136C61.1082 30.136 60.7029 30.248 60.3509 30.472C60.0095 30.696 59.7429 31.0053 59.5509 31.4C59.3589 31.7947 59.2629 32.248 59.2629 32.76C59.2629 33.2827 59.3589 33.7467 59.5509 34.152C59.7429 34.5467 60.0095 34.856 60.3509 35.08C60.7029 35.304 61.1082 35.416 61.5669 35.416ZM68.2645 37V28.568H70.2005L70.2325 31.256L69.9605 30.648C70.0778 30.2213 70.2805 29.8373 70.5685 29.496C70.8565 29.1547 71.1872 28.888 71.5605 28.696C71.9445 28.4933 72.3445 28.392 72.7605 28.392C72.9418 28.392 73.1125 28.408 73.2725 28.44C73.4432 28.472 73.5818 28.5093 73.6885 28.552L73.1605 30.712C73.0432 30.648 72.8992 30.5947 72.7285 30.552C72.5578 30.5093 72.3872 30.488 72.2165 30.488C71.9498 30.488 71.6938 30.5413 71.4485 30.648C71.2138 30.744 71.0058 30.8827 70.8245 31.064C70.6432 31.2453 70.4992 31.4587 70.3925 31.704C70.2965 31.9387 70.2485 32.2053 70.2485 32.504V37H68.2645ZM78.7515 37.16C77.8662 37.16 77.0822 36.9733 76.3995 36.6C75.7275 36.2267 75.1995 35.72 74.8155 35.08C74.4422 34.4293 74.2555 33.688 74.2555 32.856C74.2555 32.1947 74.3622 31.592 74.5755 31.048C74.7888 30.504 75.0822 30.0347 75.4555 29.64C75.8395 29.2347 76.2928 28.9253 76.8155 28.712C77.3488 28.488 77.9302 28.376 78.5595 28.376C79.1142 28.376 79.6315 28.4827 80.1115 28.696C80.5915 28.9093 81.0075 29.2027 81.3595 29.576C81.7115 29.9387 81.9782 30.376 82.1595 30.888C82.3515 31.3893 82.4422 31.9387 82.4315 32.536L82.4155 33.224H75.5835L75.2155 31.88H80.7675L80.5115 32.152V31.8C80.4795 31.4693 80.3728 31.1813 80.1915 30.936C80.0102 30.68 79.7755 30.4827 79.4875 30.344C79.2102 30.1947 78.9008 30.12 78.5595 30.12C78.0368 30.12 77.5942 30.2213 77.2315 30.424C76.8795 30.6267 76.6128 30.92 76.4315 31.304C76.2502 31.6773 76.1595 32.1467 76.1595 32.712C76.1595 33.256 76.2715 33.7307 76.4955 34.136C76.7302 34.5413 77.0555 34.856 77.4715 35.08C77.8982 35.2933 78.3942 35.4 78.9595 35.4C79.3542 35.4 79.7168 35.336 80.0475 35.208C80.3782 35.08 80.7355 34.8507 81.1195 34.52L82.0955 35.88C81.8075 36.1467 81.4768 36.376 81.1035 36.568C80.7408 36.7493 80.3568 36.8933 79.9515 37C79.5462 37.1067 79.1462 37.16 78.7515 37.16ZM87.7265 37.16C86.9798 37.16 86.3078 36.9733 85.7105 36.6C85.1238 36.216 84.6545 35.6987 84.3025 35.048C83.9612 34.3867 83.7905 33.6293 83.7905 32.776C83.7905 31.9333 83.9612 31.1813 84.3025 30.52C84.6438 29.8587 85.1078 29.3413 85.6945 28.968C86.2918 28.584 86.9638 28.392 87.7105 28.392C88.1158 28.392 88.5052 28.456 88.8785 28.584C89.2625 28.712 89.6038 28.888 89.9025 29.112C90.2012 29.3253 90.4358 29.5653 90.6065 29.832C90.7878 30.0987 90.8892 30.376 90.9105 30.664L90.3825 30.728V25.16H92.3505V37H90.4465L90.3985 35.016L90.7825 35.048C90.7718 35.3147 90.6758 35.5707 90.4945 35.816C90.3238 36.0613 90.0998 36.2853 89.8225 36.488C89.5452 36.6907 89.2198 36.856 88.8465 36.984C88.4838 37.1013 88.1105 37.16 87.7265 37.16ZM88.1105 35.496C88.5692 35.496 88.9745 35.3787 89.3265 35.144C89.6785 34.9093 89.9505 34.5893 90.1425 34.184C90.3452 33.7787 90.4465 33.3093 90.4465 32.776C90.4465 32.2533 90.3452 31.7893 90.1425 31.384C89.9505 30.968 89.6785 30.648 89.3265 30.424C88.9745 30.1893 88.5692 30.072 88.1105 30.072C87.6518 30.072 87.2465 30.1893 86.8945 30.424C86.5425 30.648 86.2652 30.968 86.0625 31.384C85.8705 31.7893 85.7745 32.2533 85.7745 32.776C85.7745 33.3093 85.8705 33.7787 86.0625 34.184C86.2652 34.5893 86.5425 34.9093 86.8945 35.144C87.2465 35.3787 87.6518 35.496 88.1105 35.496ZM99.8316 37V28.568H101.8V37H99.8316ZM100.792 26.776C100.397 26.776 100.088 26.68 99.8636 26.488C99.6503 26.2853 99.5436 26.0027 99.5436 25.64C99.5436 25.2987 99.6556 25.0213 99.8796 24.808C100.104 24.5947 100.408 24.488 100.792 24.488C101.197 24.488 101.506 24.5893 101.72 24.792C101.944 24.984 102.056 25.2667 102.056 25.64C102.056 25.9707 101.944 26.2427 101.72 26.456C101.496 26.6693 101.186 26.776 100.792 26.776ZM104.455 37V28.568H106.375L106.407 30.296L106.039 30.488C106.146 30.104 106.354 29.7573 106.663 29.448C106.972 29.128 107.34 28.872 107.767 28.68C108.194 28.488 108.631 28.392 109.079 28.392C109.719 28.392 110.252 28.52 110.679 28.776C111.116 29.032 111.442 29.416 111.655 29.928C111.879 30.44 111.991 31.08 111.991 31.848V37H110.023V31.992C110.023 31.5653 109.964 31.2133 109.847 30.936C109.73 30.648 109.548 30.44 109.303 30.312C109.058 30.1733 108.759 30.1093 108.407 30.12C108.119 30.12 107.852 30.168 107.607 30.264C107.372 30.3493 107.164 30.4773 106.983 30.648C106.812 30.808 106.674 30.9947 106.567 31.208C106.471 31.4213 106.423 31.656 106.423 31.912V37H105.447C105.255 37 105.074 37 104.903 37C104.743 37 104.594 37 104.455 37ZM123.132 37.16C122.482 37.16 121.884 37.08 121.34 36.92C120.796 36.7493 120.306 36.4987 119.868 36.168C119.431 35.8373 119.042 35.4373 118.7 34.968L120.06 33.432C120.583 34.1573 121.095 34.6587 121.596 34.936C122.098 35.2133 122.663 35.352 123.292 35.352C123.655 35.352 123.986 35.2987 124.284 35.192C124.583 35.0747 124.818 34.92 124.988 34.728C125.159 34.5253 125.244 34.296 125.244 34.04C125.244 33.8587 125.207 33.6933 125.132 33.544C125.068 33.384 124.967 33.2453 124.828 33.128C124.69 33 124.519 32.8827 124.316 32.776C124.114 32.6693 123.884 32.5787 123.628 32.504C123.372 32.4293 123.09 32.36 122.78 32.296C122.194 32.1787 121.682 32.024 121.244 31.832C120.807 31.6293 120.439 31.384 120.14 31.096C119.842 30.7973 119.623 30.4667 119.484 30.104C119.346 29.7307 119.276 29.3093 119.276 28.84C119.276 28.3707 119.378 27.9387 119.58 27.544C119.794 27.1493 120.082 26.808 120.444 26.52C120.807 26.232 121.228 26.008 121.708 25.848C122.188 25.688 122.706 25.608 123.26 25.608C123.89 25.608 124.45 25.6827 124.94 25.832C125.442 25.9813 125.879 26.2053 126.252 26.504C126.636 26.792 126.951 27.144 127.196 27.56L125.82 28.92C125.607 28.5893 125.367 28.3173 125.1 28.104C124.834 27.88 124.546 27.7147 124.236 27.608C123.927 27.4907 123.602 27.432 123.26 27.432C122.876 27.432 122.54 27.4853 122.252 27.592C121.975 27.6987 121.756 27.8533 121.596 28.056C121.436 28.248 121.356 28.4827 121.356 28.76C121.356 28.9733 121.404 29.1653 121.5 29.336C121.596 29.496 121.73 29.64 121.9 29.768C122.082 29.896 122.311 30.008 122.588 30.104C122.866 30.2 123.18 30.2853 123.532 30.36C124.119 30.4773 124.647 30.6373 125.116 30.84C125.586 31.032 125.986 31.2667 126.316 31.544C126.647 31.8107 126.898 32.12 127.068 32.472C127.239 32.8133 127.324 33.1973 127.324 33.624C127.324 34.36 127.148 34.9947 126.796 35.528C126.455 36.0507 125.97 36.456 125.34 36.744C124.711 37.0213 123.975 37.16 123.132 37.16ZM133.372 37.16C132.486 37.16 131.702 36.9733 131.02 36.6C130.348 36.2267 129.82 35.72 129.436 35.08C129.062 34.4293 128.876 33.688 128.876 32.856C128.876 32.1947 128.982 31.592 129.196 31.048C129.409 30.504 129.702 30.0347 130.076 29.64C130.46 29.2347 130.913 28.9253 131.436 28.712C131.969 28.488 132.55 28.376 133.18 28.376C133.734 28.376 134.252 28.4827 134.732 28.696C135.212 28.9093 135.628 29.2027 135.98 29.576C136.332 29.9387 136.598 30.376 136.78 30.888C136.972 31.3893 137.062 31.9387 137.052 32.536L137.036 33.224H130.204L129.836 31.88H135.388L135.132 32.152V31.8C135.1 31.4693 134.993 31.1813 134.812 30.936C134.63 30.68 134.396 30.4827 134.108 30.344C133.83 30.1947 133.521 30.12 133.18 30.12C132.657 30.12 132.214 30.2213 131.852 30.424C131.5 30.6267 131.233 30.92 131.052 31.304C130.87 31.6773 130.78 32.1467 130.78 32.712C130.78 33.256 130.892 33.7307 131.116 34.136C131.35 34.5413 131.676 34.856 132.092 35.08C132.518 35.2933 133.014 35.4 133.58 35.4C133.974 35.4 134.337 35.336 134.668 35.208C134.998 35.08 135.356 34.8507 135.74 34.52L136.716 35.88C136.428 36.1467 136.097 36.376 135.724 36.568C135.361 36.7493 134.977 36.8933 134.572 37C134.166 37.1067 133.766 37.16 133.372 37.16ZM142.138 37.16C141.445 37.16 140.816 36.968 140.25 36.584C139.685 36.2 139.232 35.6773 138.89 35.016C138.549 34.3547 138.378 33.6027 138.378 32.76C138.378 31.9173 138.549 31.1653 138.89 30.504C139.232 29.8427 139.696 29.3253 140.282 28.952C140.869 28.5787 141.53 28.392 142.266 28.392C142.693 28.392 143.082 28.456 143.434 28.584C143.786 28.7013 144.096 28.872 144.362 29.096C144.629 29.32 144.848 29.576 145.018 29.864C145.2 30.152 145.322 30.4613 145.386 30.792L144.954 30.68V28.568H146.938V37H144.938V34.984L145.402 34.904C145.328 35.192 145.189 35.4747 144.986 35.752C144.794 36.0187 144.549 36.2587 144.25 36.472C143.962 36.6747 143.637 36.84 143.274 36.968C142.922 37.096 142.544 37.16 142.138 37.16ZM142.682 35.416C143.141 35.416 143.546 35.304 143.898 35.08C144.25 34.856 144.522 34.5467 144.714 34.152C144.917 33.7467 145.018 33.2827 145.018 32.76C145.018 32.248 144.917 31.7947 144.714 31.4C144.522 31.0053 144.25 30.696 143.898 30.472C143.546 30.248 143.141 30.136 142.682 30.136C142.224 30.136 141.818 30.248 141.466 30.472C141.125 30.696 140.858 31.0053 140.666 31.4C140.474 31.7947 140.378 32.248 140.378 32.76C140.378 33.2827 140.474 33.7467 140.666 34.152C140.858 34.5467 141.125 34.856 141.466 35.08C141.818 35.304 142.224 35.416 142.682 35.416ZM149.38 37V28.568H151.316L151.348 31.256L151.076 30.648C151.193 30.2213 151.396 29.8373 151.684 29.496C151.972 29.1547 152.303 28.888 152.676 28.696C153.06 28.4933 153.46 28.392 153.876 28.392C154.057 28.392 154.228 28.408 154.388 28.44C154.559 28.472 154.697 28.5093 154.804 28.552L154.276 30.712C154.159 30.648 154.015 30.5947 153.844 30.552C153.673 30.5093 153.503 30.488 153.332 30.488C153.065 30.488 152.809 30.5413 152.564 30.648C152.329 30.744 152.121 30.8827 151.94 31.064C151.759 31.2453 151.615 31.4587 151.508 31.704C151.412 31.9387 151.364 32.2053 151.364 32.504V37H149.38ZM159.531 37.16C158.742 37.16 158.032 36.968 157.403 36.584C156.774 36.2 156.278 35.6773 155.915 35.016C155.552 34.3547 155.371 33.608 155.371 32.776C155.371 31.944 155.552 31.1973 155.915 30.536C156.278 29.8747 156.774 29.352 157.403 28.968C158.032 28.584 158.742 28.392 159.531 28.392C160.288 28.392 160.976 28.536 161.595 28.824C162.214 29.112 162.694 29.512 163.035 30.024L161.947 31.336C161.787 31.112 161.584 30.9093 161.339 30.728C161.094 30.5467 160.832 30.4027 160.555 30.296C160.278 30.1893 160 30.136 159.723 30.136C159.254 30.136 158.832 30.2533 158.459 30.488C158.096 30.712 157.808 31.0267 157.595 31.432C157.382 31.8267 157.275 32.2747 157.275 32.776C157.275 33.2773 157.382 33.7253 157.595 34.12C157.819 34.5147 158.118 34.8293 158.491 35.064C158.864 35.2987 159.28 35.416 159.739 35.416C160.016 35.416 160.283 35.3733 160.539 35.288C160.806 35.192 161.056 35.0587 161.291 34.888C161.526 34.7173 161.744 34.504 161.947 34.248L163.035 35.576C162.672 36.0453 162.171 36.4293 161.531 36.728C160.902 37.016 160.235 37.16 159.531 37.16ZM164.7 37V25.16H166.652V30.296L166.284 30.488C166.391 30.104 166.599 29.7573 166.908 29.448C167.217 29.128 167.585 28.872 168.012 28.68C168.439 28.488 168.876 28.392 169.324 28.392C169.964 28.392 170.497 28.52 170.924 28.776C171.361 29.032 171.687 29.416 171.9 29.928C172.124 30.44 172.236 31.08 172.236 31.848V37H170.268V31.992C170.268 31.5653 170.209 31.2133 170.092 30.936C169.975 30.648 169.793 30.44 169.548 30.312C169.303 30.1733 169.004 30.1093 168.652 30.12C168.364 30.12 168.097 30.168 167.852 30.264C167.617 30.3493 167.409 30.4773 167.228 30.648C167.057 30.808 166.919 30.9947 166.812 31.208C166.716 31.4213 166.668 31.656 166.668 31.912V37H165.692C165.5 37 165.319 37 165.148 37C164.988 37 164.839 37 164.7 37ZM179.825 37V25.8H184.689C185.361 25.8 185.975 25.96 186.529 26.28C187.084 26.5893 187.521 27.016 187.841 27.56C188.172 28.0933 188.337 28.696 188.337 29.368C188.337 30.008 188.172 30.6 187.841 31.144C187.521 31.6773 187.084 32.104 186.529 32.424C185.985 32.7333 185.372 32.888 184.689 32.888H181.857V37H179.825ZM186.321 37L183.473 31.944L185.617 31.544L188.785 37.016L186.321 37ZM181.857 31.08H184.705C185.015 31.08 185.281 31.0107 185.505 30.872C185.74 30.7227 185.921 30.52 186.049 30.264C186.177 30.008 186.241 29.7253 186.241 29.416C186.241 29.064 186.161 28.76 186.001 28.504C185.841 28.248 185.617 28.0453 185.329 27.896C185.041 27.7467 184.711 27.672 184.337 27.672H181.857V31.08ZM194.429 37.16C193.544 37.16 192.76 36.9733 192.077 36.6C191.405 36.2267 190.877 35.72 190.493 35.08C190.12 34.4293 189.933 33.688 189.933 32.856C189.933 32.1947 190.04 31.592 190.253 31.048C190.466 30.504 190.76 30.0347 191.133 29.64C191.517 29.2347 191.97 28.9253 192.493 28.712C193.026 28.488 193.608 28.376 194.237 28.376C194.792 28.376 195.309 28.4827 195.789 28.696C196.269 28.9093 196.685 29.2027 197.037 29.576C197.389 29.9387 197.656 30.376 197.837 30.888C198.029 31.3893 198.12 31.9387 198.109 32.536L198.093 33.224H191.261L190.893 31.88H196.445L196.189 32.152V31.8C196.157 31.4693 196.05 31.1813 195.869 30.936C195.688 30.68 195.453 30.4827 195.165 30.344C194.888 30.1947 194.578 30.12 194.237 30.12C193.714 30.12 193.272 30.2213 192.909 30.424C192.557 30.6267 192.29 30.92 192.109 31.304C191.928 31.6773 191.837 32.1467 191.837 32.712C191.837 33.256 191.949 33.7307 192.173 34.136C192.408 34.5413 192.733 34.856 193.149 35.08C193.576 35.2933 194.072 35.4 194.637 35.4C195.032 35.4 195.394 35.336 195.725 35.208C196.056 35.08 196.413 34.8507 196.797 34.52L197.773 35.88C197.485 36.1467 197.154 36.376 196.781 36.568C196.418 36.7493 196.034 36.8933 195.629 37C195.224 37.1067 194.824 37.16 194.429 37.16ZM202.828 37.16C202.081 37.16 201.409 37.0373 200.812 36.792C200.225 36.536 199.745 36.1733 199.372 35.704L200.652 34.6C200.972 34.9627 201.329 35.224 201.724 35.384C202.119 35.544 202.535 35.624 202.972 35.624C203.153 35.624 203.313 35.6027 203.452 35.56C203.601 35.5173 203.729 35.4533 203.836 35.368C203.943 35.2827 204.023 35.1867 204.076 35.08C204.14 34.9627 204.172 34.8347 204.172 34.696C204.172 34.44 204.076 34.2373 203.884 34.088C203.777 34.0133 203.607 33.9333 203.372 33.848C203.148 33.7627 202.855 33.6773 202.492 33.592C201.916 33.4427 201.436 33.272 201.052 33.08C200.668 32.8773 200.369 32.6533 200.156 32.408C199.975 32.2053 199.836 31.976 199.74 31.72C199.655 31.464 199.612 31.1867 199.612 30.888C199.612 30.5147 199.692 30.1787 199.852 29.88C200.023 29.5707 200.252 29.304 200.54 29.08C200.828 28.856 201.164 28.6853 201.548 28.568C201.932 28.4507 202.332 28.392 202.748 28.392C203.175 28.392 203.585 28.4453 203.98 28.552C204.385 28.6587 204.759 28.8133 205.1 29.016C205.452 29.208 205.751 29.4427 205.996 29.72L204.908 30.92C204.705 30.728 204.481 30.5573 204.236 30.408C204.001 30.2587 203.761 30.1413 203.516 30.056C203.271 29.96 203.041 29.912 202.828 29.912C202.625 29.912 202.444 29.9333 202.284 29.976C202.124 30.008 201.991 30.0613 201.884 30.136C201.777 30.2107 201.692 30.3067 201.628 30.424C201.575 30.5307 201.548 30.6587 201.548 30.808C201.559 30.936 201.591 31.0587 201.644 31.176C201.708 31.2827 201.793 31.3733 201.9 31.448C202.017 31.5227 202.193 31.608 202.428 31.704C202.663 31.8 202.967 31.8907 203.34 31.976C203.863 32.1147 204.3 32.2693 204.652 32.44C205.004 32.6107 205.281 32.808 205.484 33.032C205.687 33.224 205.831 33.448 205.916 33.704C206.001 33.96 206.044 34.2427 206.044 34.552C206.044 35.0533 205.9 35.5013 205.612 35.896C205.335 36.2907 204.951 36.6 204.46 36.824C203.98 37.048 203.436 37.16 202.828 37.16ZM210.866 37.16C210.258 37.16 209.73 37.0267 209.282 36.76C208.834 36.4827 208.492 36.0933 208.258 35.592C208.023 35.08 207.906 34.472 207.906 33.768V28.568H209.874V33.352C209.874 33.8 209.943 34.184 210.082 34.504C210.22 34.8133 210.423 35.0533 210.69 35.224C210.956 35.3947 211.276 35.48 211.65 35.48C211.927 35.48 212.178 35.4373 212.402 35.352C212.636 35.256 212.839 35.128 213.01 34.968C213.18 34.7973 213.314 34.6 213.41 34.376C213.506 34.1413 213.554 33.8907 213.554 33.624V28.568H215.522V37H213.602L213.57 35.24L213.922 35.048C213.794 35.4533 213.575 35.816 213.266 36.136C212.967 36.4453 212.61 36.696 212.194 36.888C211.778 37.0693 211.335 37.16 210.866 37.16ZM218.004 37V25.16H219.988V37H218.004ZM223.326 37V26.424H225.294V37H223.326ZM221.662 30.392V28.568H227.134V30.392H221.662ZM231.921 37.16C231.174 37.16 230.502 37.0373 229.905 36.792C229.318 36.536 228.838 36.1733 228.465 35.704L229.745 34.6C230.065 34.9627 230.422 35.224 230.817 35.384C231.212 35.544 231.628 35.624 232.065 35.624C232.246 35.624 232.406 35.6027 232.545 35.56C232.694 35.5173 232.822 35.4533 232.929 35.368C233.036 35.2827 233.116 35.1867 233.169 35.08C233.233 34.9627 233.265 34.8347 233.265 34.696C233.265 34.44 233.169 34.2373 232.977 34.088C232.87 34.0133 232.7 33.9333 232.465 33.848C232.241 33.7627 231.948 33.6773 231.585 33.592C231.009 33.4427 230.529 33.272 230.145 33.08C229.761 32.8773 229.462 32.6533 229.249 32.408C229.068 32.2053 228.929 31.976 228.833 31.72C228.748 31.464 228.705 31.1867 228.705 30.888C228.705 30.5147 228.785 30.1787 228.945 29.88C229.116 29.5707 229.345 29.304 229.633 29.08C229.921 28.856 230.257 28.6853 230.641 28.568C231.025 28.4507 231.425 28.392 231.841 28.392C232.268 28.392 232.678 28.4453 233.073 28.552C233.478 28.6587 233.852 28.8133 234.193 29.016C234.545 29.208 234.844 29.4427 235.089 29.72L234.001 30.92C233.798 30.728 233.574 30.5573 233.329 30.408C233.094 30.2587 232.854 30.1413 232.609 30.056C232.364 29.96 232.134 29.912 231.921 29.912C231.718 29.912 231.537 29.9333 231.377 29.976C231.217 30.008 231.084 30.0613 230.977 30.136C230.87 30.2107 230.785 30.3067 230.721 30.424C230.668 30.5307 230.641 30.6587 230.641 30.808C230.652 30.936 230.684 31.0587 230.737 31.176C230.801 31.2827 230.886 31.3733 230.993 31.448C231.11 31.5227 231.286 31.608 231.521 31.704C231.756 31.8 232.06 31.8907 232.433 31.976C232.956 32.1147 233.393 32.2693 233.745 32.44C234.097 32.6107 234.374 32.808 234.577 33.032C234.78 33.224 234.924 33.448 235.009 33.704C235.094 33.96 235.137 34.2427 235.137 34.552C235.137 35.0533 234.993 35.5013 234.705 35.896C234.428 36.2907 234.044 36.6 233.553 36.824C233.073 37.048 232.529 37.16 231.921 37.16Z" fill="#151515"/>
<path opacity="0.6" fill-rule="evenodd" clip-rule="evenodd" d="M57.3018 214.144C57.3018 214.144 82.8494 208.713 101.739 193.196C120.628 177.68 142.657 163.152 182.102 171.095C221.548 179.038 232.019 181.381 232.019 181.381C232.019 181.381 269.135 191.255 294.339 163.692C320.91 136.871 342.877 127.972 342.877 127.972C342.877 127.972 365.16 120.415 386.266 136.824C407.371 153.233 428.341 168.043 428.341 168.043C428.341 168.043 458.936 185.753 478.023 163.692C497.11 141.63 519.545 116.417 519.545 116.417C519.545 116.417 542.063 87.2915 587.408 101.854C632.753 116.417 652 116.417 652 116.417V243C652 246.314 649.314 249 646 249H63.3018C59.9881 249 57.3018 246.314 57.3018 243V214.144Z" fill="url(#paint0_linear_754_1396)"/>
<path d="M57.3018 213C57.3018 213 82.8494 207.621 101.739 192.257C120.628 176.892 142.657 162.505 182.102 170.371C221.548 178.236 232.019 180.557 232.019 180.557C232.019 180.557 269.135 190.334 294.339 163.04C320.91 136.482 342.877 127.67 342.877 127.67C342.877 127.67 365.16 120.187 386.266 136.435C407.371 152.684 428.341 167.349 428.341 167.349C428.341 167.349 458.936 184.886 478.023 163.04C497.11 141.194 519.545 116.227 519.545 116.227C519.545 116.227 542.063 87.3864 587.408 101.807C632.753 116.227 652 116.227 652 116.227" stroke="#337C2A" stroke-width="2"/>
<circle cx="357" cy="126" r="3" fill="#337C2A"/>
<g filter="url(#filter0_d_754_1396)">
<path fill-rule="evenodd" clip-rule="evenodd" d="M317 75C315.343 75 314 76.3431 314 78V110C314 111.657 315.343 113 317 113H352.536L355.178 116.814C355.576 117.388 356.424 117.388 356.822 116.814L359.464 113H394C395.657 113 397 111.657 397 110V78C397 76.3431 395.657 75 394 75H317Z" fill="#525F7F"/>
</g>
<path d="M321.596 106L319.366 99H320.516L321.866 103.38C321.906 103.487 321.943 103.613 321.976 103.76C322.009 103.9 322.039 104.043 322.066 104.19C322.093 104.337 322.116 104.473 322.136 104.6C322.163 104.727 322.186 104.83 322.206 104.91L321.916 104.9C322.016 104.547 322.093 104.273 322.146 104.08C322.206 103.887 322.253 103.74 322.286 103.64C322.319 103.533 322.349 103.443 322.376 103.37L323.636 100.21H324.606L325.826 103.37C325.893 103.53 325.949 103.69 325.996 103.85C326.049 104.003 326.096 104.16 326.136 104.32C326.176 104.473 326.219 104.637 326.266 104.81L326.006 104.88C326.039 104.7 326.063 104.56 326.076 104.46C326.096 104.353 326.113 104.267 326.126 104.2C326.139 104.133 326.153 104.07 326.166 104.01C326.179 103.943 326.199 103.86 326.226 103.76C326.259 103.66 326.303 103.523 326.356 103.35L327.686 99H328.846L326.616 106H325.866L324.016 101.62L324.106 101.66L322.326 106H321.596ZM332.003 106.1C331.463 106.1 330.983 105.987 330.563 105.76C330.15 105.527 329.823 105.21 329.583 104.81C329.35 104.41 329.233 103.95 329.233 103.43C329.233 103.017 329.3 102.64 329.433 102.3C329.566 101.96 329.75 101.667 329.983 101.42C330.223 101.167 330.506 100.973 330.833 100.84C331.166 100.7 331.526 100.63 331.913 100.63C332.253 100.63 332.57 100.697 332.863 100.83C333.156 100.957 333.41 101.133 333.623 101.36C333.843 101.587 334.01 101.857 334.123 102.17C334.243 102.477 334.3 102.813 334.293 103.18L334.283 103.62H329.993L329.763 102.8H333.393L333.243 102.97V102.73C333.223 102.51 333.15 102.313 333.023 102.14C332.896 101.967 332.736 101.83 332.543 101.73C332.35 101.63 332.14 101.58 331.913 101.58C331.553 101.58 331.25 101.65 331.003 101.79C330.756 101.923 330.57 102.123 330.443 102.39C330.316 102.65 330.253 102.973 330.253 103.36C330.253 103.727 330.33 104.047 330.483 104.32C330.636 104.587 330.853 104.793 331.133 104.94C331.413 105.087 331.736 105.16 332.103 105.16C332.363 105.16 332.603 105.117 332.823 105.03C333.05 104.943 333.293 104.787 333.553 104.56L334.073 105.29C333.913 105.45 333.716 105.59 333.483 105.71C333.256 105.83 333.013 105.927 332.753 106C332.5 106.067 332.25 106.1 332.003 106.1ZM337.602 106.1C337.122 106.1 336.692 105.983 336.312 105.75C335.939 105.51 335.642 105.187 335.422 104.78C335.202 104.367 335.092 103.897 335.092 103.37C335.092 102.843 335.199 102.377 335.412 101.97C335.632 101.557 335.929 101.233 336.302 101C336.676 100.76 337.099 100.64 337.572 100.64C337.832 100.64 338.082 100.683 338.322 100.77C338.569 100.85 338.789 100.963 338.982 101.11C339.176 101.25 339.326 101.407 339.432 101.58C339.546 101.747 339.602 101.917 339.602 102.09L339.302 102.11V98.6H340.332V106H339.302V104.75H339.502C339.502 104.91 339.449 105.07 339.342 105.23C339.236 105.383 339.092 105.527 338.912 105.66C338.739 105.793 338.536 105.9 338.302 105.98C338.076 106.06 337.842 106.1 337.602 106.1ZM337.742 105.21C338.056 105.21 338.332 105.13 338.572 104.97C338.812 104.81 338.999 104.593 339.132 104.32C339.272 104.04 339.342 103.723 339.342 103.37C339.342 103.017 339.272 102.703 339.132 102.43C338.999 102.15 338.812 101.93 338.572 101.77C338.332 101.61 338.056 101.53 337.742 101.53C337.429 101.53 337.152 101.61 336.912 101.77C336.672 101.93 336.482 102.15 336.342 102.43C336.209 102.703 336.142 103.017 336.142 103.37C336.142 103.723 336.209 104.04 336.342 104.32C336.482 104.593 336.672 104.81 336.912 104.97C337.152 105.13 337.429 105.21 337.742 105.21ZM341.91 107.79L341.53 107.33C341.764 107.197 341.954 107.043 342.1 106.87C342.247 106.697 342.32 106.547 342.32 106.42C342.32 106.353 342.304 106.287 342.27 106.22C342.237 106.16 342.167 106.073 342.06 105.96C341.927 105.833 341.84 105.727 341.8 105.64C341.76 105.553 341.74 105.46 341.74 105.36C341.74 105.2 341.797 105.073 341.91 104.98C342.024 104.88 342.17 104.83 342.35 104.83C342.517 104.83 342.667 104.88 342.8 104.98C342.94 105.073 343.047 105.207 343.12 105.38C343.2 105.547 343.24 105.74 343.24 105.96C343.24 106.16 343.207 106.353 343.14 106.54C343.074 106.727 342.98 106.9 342.86 107.06C342.74 107.22 342.6 107.363 342.44 107.49C342.28 107.617 342.104 107.717 341.91 107.79ZM349.529 106.1C348.996 106.1 348.536 105.953 348.149 105.66C347.769 105.367 347.476 104.953 347.269 104.42C347.062 103.88 346.959 103.24 346.959 102.5C346.959 101.76 347.062 101.123 347.269 100.59C347.476 100.05 347.769 99.6333 348.149 99.34C348.536 99.0467 348.996 98.9 349.529 98.9C350.062 98.9 350.522 99.0467 350.909 99.34C351.296 99.6333 351.592 100.05 351.799 100.59C352.006 101.123 352.109 101.76 352.109 102.5C352.109 103.24 352.006 103.88 351.799 104.42C351.592 104.953 351.296 105.367 350.909 105.66C350.522 105.953 350.062 106.1 349.529 106.1ZM349.529 105.12C350.016 105.12 350.392 104.893 350.659 104.44C350.926 103.98 351.059 103.333 351.059 102.5C351.059 101.667 350.926 101.023 350.659 100.57C350.392 100.11 350.016 99.88 349.529 99.88C349.042 99.88 348.666 100.11 348.399 100.57C348.132 101.023 347.999 101.667 347.999 102.5C347.999 103.333 348.132 103.98 348.399 104.44C348.666 104.893 349.042 105.12 349.529 105.12ZM353.693 106L356.593 99.68L356.713 100H353.173V99H357.503L357.643 99.69L354.853 106H353.693ZM361.776 106V99H362.836L365.386 103.15L364.876 103.14L367.456 99H368.456V106H367.376V103.13C367.376 102.53 367.389 101.99 367.416 101.51C367.449 101.03 367.503 100.553 367.576 100.08L367.716 100.45L365.426 103.99H364.766L362.546 100.49L362.656 100.08C362.729 100.527 362.779 100.987 362.806 101.46C362.839 101.927 362.856 102.483 362.856 103.13V106H361.776ZM372.178 106.1C371.745 106.1 371.348 105.98 370.988 105.74C370.635 105.5 370.352 105.173 370.138 104.76C369.925 104.347 369.818 103.88 369.818 103.36C369.818 102.833 369.925 102.367 370.138 101.96C370.358 101.547 370.652 101.223 371.018 100.99C371.392 100.757 371.808 100.64 372.268 100.64C372.542 100.64 372.792 100.68 373.018 100.76C373.245 100.84 373.442 100.953 373.608 101.1C373.782 101.24 373.922 101.403 374.028 101.59C374.142 101.777 374.212 101.977 374.238 102.19L374.008 102.11V100.75H375.048V106H374.008V104.75L374.248 104.68C374.208 104.86 374.125 105.037 373.998 105.21C373.878 105.377 373.722 105.527 373.528 105.66C373.342 105.793 373.132 105.9 372.898 105.98C372.672 106.06 372.432 106.1 372.178 106.1ZM372.448 105.15C372.762 105.15 373.038 105.073 373.278 104.92C373.518 104.767 373.705 104.557 373.838 104.29C373.978 104.017 374.048 103.707 374.048 103.36C374.048 103.02 373.978 102.717 373.838 102.45C373.705 102.183 373.518 101.973 373.278 101.82C373.038 101.667 372.762 101.59 372.448 101.59C372.142 101.59 371.868 101.667 371.628 101.82C371.395 101.973 371.208 102.183 371.068 102.45C370.935 102.717 370.868 103.02 370.868 103.36C370.868 103.707 370.935 104.017 371.068 104.29C371.208 104.557 371.395 104.767 371.628 104.92C371.868 105.073 372.142 105.15 372.448 105.15ZM376.487 106V100.75H377.527V102.4L377.427 102C377.5 101.747 377.623 101.517 377.797 101.31C377.977 101.103 378.18 100.94 378.407 100.82C378.64 100.7 378.88 100.64 379.127 100.64C379.24 100.64 379.347 100.65 379.447 100.67C379.553 100.69 379.637 100.713 379.697 100.74L379.427 101.86C379.347 101.827 379.257 101.8 379.157 101.78C379.063 101.753 378.97 101.74 378.877 101.74C378.697 101.74 378.523 101.777 378.357 101.85C378.197 101.917 378.053 102.013 377.927 102.14C377.807 102.26 377.71 102.403 377.637 102.57C377.563 102.73 377.527 102.907 377.527 103.1V106H376.487ZM382.525 106.1C382.039 106.1 381.602 105.98 381.215 105.74C380.835 105.5 380.532 105.173 380.305 104.76C380.085 104.347 379.975 103.883 379.975 103.37C379.975 102.857 380.085 102.393 380.305 101.98C380.532 101.567 380.835 101.24 381.215 101C381.602 100.76 382.039 100.64 382.525 100.64C382.992 100.64 383.415 100.737 383.795 100.93C384.182 101.117 384.475 101.373 384.675 101.7L384.105 102.4C383.999 102.247 383.862 102.107 383.695 101.98C383.529 101.853 383.352 101.753 383.165 101.68C382.979 101.607 382.799 101.57 382.625 101.57C382.305 101.57 382.019 101.65 381.765 101.81C381.519 101.963 381.322 102.177 381.175 102.45C381.029 102.723 380.955 103.03 380.955 103.37C380.955 103.71 381.032 104.017 381.185 104.29C381.339 104.557 381.542 104.77 381.795 104.93C382.049 105.09 382.329 105.17 382.635 105.17C382.815 105.17 382.989 105.14 383.155 105.08C383.329 105.02 383.495 104.93 383.655 104.81C383.815 104.69 383.965 104.543 384.105 104.37L384.675 105.07C384.462 105.37 384.155 105.617 383.755 105.81C383.362 106.003 382.952 106.1 382.525 106.1ZM385.647 106V98.6H386.677V101.83L386.497 101.95C386.563 101.717 386.693 101.503 386.887 101.31C387.08 101.11 387.31 100.95 387.577 100.83C387.843 100.703 388.117 100.64 388.397 100.64C388.797 100.64 389.13 100.72 389.397 100.88C389.663 101.033 389.863 101.27 389.997 101.59C390.13 101.91 390.197 102.313 390.197 102.8V106H389.167V102.87C389.167 102.57 389.127 102.323 389.047 102.13C388.967 101.93 388.843 101.787 388.677 101.7C388.51 101.607 388.303 101.567 388.057 101.58C387.857 101.58 387.673 101.613 387.507 101.68C387.34 101.74 387.193 101.827 387.067 101.94C386.947 102.053 386.85 102.187 386.777 102.34C386.71 102.487 386.677 102.647 386.677 102.82V106H386.167C386.08 106 385.993 106 385.907 106C385.82 106 385.733 106 385.647 106Z" fill="white"/>
<path d="M346.085 93V83.96L346.853 84.04L343.045 88.696L342.869 88.408H349.989V90.216H341.749L340.885 88.552L346.453 81.768H348.085V93H346.085ZM354.849 93.16C354.017 93.16 353.292 92.9787 352.673 92.616C352.054 92.2427 351.484 91.6133 350.961 90.728L352.529 89.736C352.774 90.1307 353.025 90.4507 353.281 90.696C353.548 90.9307 353.814 91.1067 354.081 91.224C354.358 91.3307 354.652 91.384 354.961 91.384C355.313 91.384 355.633 91.2987 355.921 91.128C356.22 90.9573 356.454 90.7227 356.625 90.424C356.806 90.1253 356.897 89.784 356.897 89.4C356.897 89.016 356.822 88.6907 356.673 88.424C356.534 88.1573 356.326 87.9547 356.049 87.816C355.782 87.6667 355.457 87.592 355.073 87.592C354.902 87.592 354.721 87.6133 354.529 87.656C354.337 87.688 354.134 87.7413 353.921 87.816C353.708 87.88 353.473 87.96 353.217 88.056L352.705 86.696L355.889 83.176L356.369 83.64L351.649 83.608V81.768H358.225L358.609 82.536L354.929 86.552L354.449 86.024C354.534 85.9813 354.673 85.944 354.865 85.912C355.068 85.8693 355.244 85.848 355.393 85.848C355.862 85.848 356.31 85.9387 356.737 86.12C357.164 86.2907 357.532 86.536 357.841 86.856C358.161 87.176 358.412 87.5493 358.593 87.976C358.774 88.392 358.865 88.8453 358.865 89.336C358.865 90.072 358.684 90.728 358.321 91.304C357.969 91.8693 357.489 92.3227 356.881 92.664C356.273 92.9947 355.596 93.16 354.849 93.16ZM364.478 93.16C363.571 93.16 362.792 92.9307 362.142 92.472C361.502 92.0027 361.006 91.3413 360.654 90.488C360.312 89.624 360.142 88.5947 360.142 87.4C360.142 86.2053 360.312 85.1813 360.654 84.328C361.006 83.464 361.502 82.8027 362.142 82.344C362.792 81.8747 363.571 81.64 364.478 81.64C365.384 81.64 366.163 81.8747 366.814 82.344C367.464 82.8027 367.96 83.464 368.302 84.328C368.654 85.1813 368.83 86.2053 368.83 87.4C368.83 88.5947 368.654 89.624 368.302 90.488C367.96 91.3413 367.464 92.0027 366.814 92.472C366.163 92.9307 365.384 93.16 364.478 93.16ZM364.478 91.336C365.224 91.336 365.8 90.9947 366.206 90.312C366.622 89.6187 366.83 88.648 366.83 87.4C366.83 86.1413 366.622 85.1653 366.206 84.472C365.8 83.7787 365.224 83.432 364.478 83.432C363.731 83.432 363.15 83.7787 362.734 84.472C362.328 85.1653 362.126 86.1413 362.126 87.4C362.126 88.648 362.328 89.6187 362.734 90.312C363.15 90.9947 363.731 91.336 364.478 91.336Z" fill="white"/>
<g filter="url(#filter1_d_754_1396)">
<path fill-rule="evenodd" clip-rule="evenodd" d="M358.114 136.49L359.588 127L367.271 133.099L363.486 134.501L364.772 137.729L363.186 138.317L361.9 135.088L358.114 136.49Z" fill="black"/>
</g>
<defs>
<filter id="filter0_d_754_1396" x="304" y="67" width="103" height="62.2422" filterUnits="userSpaceOnUse" color-interpolation-filters="sRGB">
<feFlood flood-opacity="0" result="BackgroundImageFix"/>
<feColorMatrix in="SourceAlpha" type="matrix" values="0 0 0 0 0 0 0 0 0 0 0 0 0 0 0 0 0 0 127 0" result="hardAlpha"/>
<feOffset dy="2"/>
<feGaussianBlur stdDeviation="5"/>
<feColorMatrix type="matrix" values="0 0 0 0 0.0166667 0 0 0 0 0.111684 0 0 0 0 0.25 0 0 0 0.11 0"/>
<feBlend mode="normal" in2="BackgroundImageFix" result="effect1_dropShadow_754_1396"/>
<feBlend mode="normal" in="SourceGraphic" in2="effect1_dropShadow_754_1396" result="shape"/>
</filter>
<filter id="filter1_d_754_1396" x="354.114" y="127" width="17.1572" height="19.3164" filterUnits="userSpaceOnUse" color-interpolation-filters="sRGB">
<feFlood flood-opacity="0" result="BackgroundImageFix"/>
<feColorMatrix in="SourceAlpha" type="matrix" values="0 0 0 0 0 0 0 0 0 0 0 0 0 0 0 0 0 0 127 0" result="hardAlpha"/>
<feOffset dy="4"/>
<feGaussianBlur stdDeviation="2"/>
<feColorMatrix type="matrix" values="0 0 0 0 0 0 0 0 0 0 0 0 0 0 0 0 0 0 0.25 0"/>
<feBlend mode="normal" in2="BackgroundImageFix" result="effect1_dropShadow_754_1396"/>
<feBlend mode="normal" in="SourceGraphic" in2="effect1_dropShadow_754_1396" result="shape"/>
</filter>
<linearGradient id="paint0_linear_754_1396" x1="57.3018" y1="97" x2="57.3018" y2="249" gradientUnits="userSpaceOnUse">
<stop stop-color="#C5EF65"/>
<stop offset="1" stop-color="#D3E4A9" stop-opacity="0.01"/>
</linearGradient>
</defs>
</svg>
