<svg width="51" height="42" viewBox="0 0 51 42" fill="none" xmlns="http://www.w3.org/2000/svg">
<path d="M48.7514 5.71413C47.5191 5.26353 34.3336 13.9187 38.0224 25.712C38.1853 26.2284 38.4512 26.7064 38.8041 27.1171C40.0851 25.6016 41.2666 24.0047 42.3411 22.3365C42.9516 21.4369 43.4717 20.4808 44.0208 19.5424C44.5053 18.5734 45.048 17.6221 45.4598 16.6127C46.3901 14.6374 47.0458 12.5491 47.6434 10.4431C47.1734 12.5782 46.6421 14.7182 45.8248 16.7645C45.4695 17.8078 44.9785 18.7946 44.5489 19.8121C44.0483 20.7925 43.5799 21.7954 43.0178 22.7451C42.1362 24.3152 41.1655 25.8337 40.1107 27.2931C39.9697 27.488 39.8265 27.6824 39.6811 27.8762C39.5793 28.0118 39.4824 28.1507 39.3791 28.2864C39.2047 28.5141 39.0221 28.737 38.8445 28.9615C37.6826 31.4474 36.0103 33.6607 33.9363 35.4573L33.0738 36.1647L33.0851 36.147C35.7403 31.0579 30.4219 26.0172 29.8211 26.1222C29.2203 26.2272 25.9449 32.7844 30.1812 36.659C30.4773 36.9284 30.8521 37.0954 31.2504 37.1354C31.3118 36.7026 31.3538 36.2633 31.3796 35.8288C31.4229 34.986 31.4154 34.1414 31.357 33.2996C31.2929 32.4531 31.185 31.6106 31.034 30.7752C30.8902 29.9354 30.6916 29.1069 30.4736 28.2799C30.7546 29.0875 31.0178 29.895 31.2278 30.7332C31.4429 31.5653 31.6148 32.4078 31.743 33.2576C31.8686 34.1138 31.943 34.9767 31.9659 35.8417C31.9659 36.2164 31.9659 36.5879 31.9481 36.961L31.8851 37.003C31.1939 37.5149 30.4122 37.8735 29.6644 38.295C28.1059 39.0008 26.4924 39.6388 24.7917 39.9279C21.4178 40.6579 17.8614 40.3446 14.5667 39.2818C11.2509 38.1656 8.27812 36.2151 5.93413 33.6178C1.25041 28.4156 -0.511635 20.6471 1.73493 13.8799C2.80321 10.465 4.753 7.39218 7.38769 4.9712C10.0397 2.53028 13.2786 0.817632 16.789 0C13.2345 0.730097 9.92911 2.36693 7.19388 4.75155C4.44034 7.15318 2.36764 10.2374 1.18419 13.6942C-1.3224 20.5874 0.240989 28.7499 5.04583 34.3962C7.47085 37.2334 10.5857 39.3982 14.0903 40.6821C17.5901 41.9193 21.434 42.3634 25.1277 41.6754C26.9882 41.4057 28.7713 40.7661 30.4994 40.0361C31.3328 39.6016 32.2001 39.2285 32.9769 38.6875C33.371 38.4291 33.7845 38.203 34.1608 37.9139L35.2784 37.0466C38.0531 34.8113 40.1931 31.8057 41.6014 28.5125C42.4386 28.5655 43.2711 28.353 43.9804 27.9053C54.4267 21.3012 49.9804 6.16797 48.7514 5.71413Z" fill="url(#paint0_linear_850_1784)"/>
<defs>
<linearGradient id="paint0_linear_850_1784" x1="48.7772" y1="5.22315" x2="4.50802" y2="30.3263" gradientUnits="userSpaceOnUse">
<stop stop-color="#95C11F"/>
<stop offset="1" stop-color="#22451F"/>
</linearGradient>
</defs>
</svg>
